M48
; DRILL file {KiCad 5.1.5+dfsg1-2build2} date Tue 24 Aug 2021 10:34:51 PM EDT
; FORMAT={-:-/ absolute / inch / decimal}
; #@! TF.CreationDate,2021-08-24T22:34:51-04:00
; #@! TF.GenerationSoftware,Kicad,Pcbnew,5.1.5+dfsg1-2build2
; #@! TF.FileFunction,Plated,1,2,PTH
FMAT,2
INCH
T1C0.0157
T2C0.0315
T3C0.0394
T4C0.0400
T5C0.1260
%
G90
G05
T1
X4.314Y-4.801
X4.318Y-2.2
X4.35Y-4.394
X4.544Y-3.681
X4.611Y-3.611
X4.637Y-4.22
X4.641Y-2.2
X4.658Y-3.484
X4.692Y-4.801
X4.755Y-2.98
X4.777Y-4.238
X4.8082Y-3.969
X4.849Y-3.294
X4.8855Y-3.969
X4.968Y-3.865
X4.979Y-3.713
X5.053Y-4.121
X5.142Y-3.746
X5.245Y-3.749
X5.337Y-3.752
X5.341Y-4.182
X5.917Y-4.182
X6.72Y-2.825
T2
X5.53Y-3.1
X5.53Y-3.7
X5.63Y-3.1
X5.63Y-3.7
X5.73Y-3.1
X5.73Y-3.7
X5.83Y-3.1
X5.83Y-3.7
X5.93Y-3.1
X5.93Y-3.7
X6.03Y-3.1
X6.03Y-3.7
X6.13Y-3.1
X6.13Y-3.7
X6.23Y-3.1
X6.23Y-3.7
X6.33Y-3.1
X6.33Y-3.7
X6.43Y-3.1
X6.43Y-3.7
X6.53Y-3.1
X6.53Y-3.7
X6.63Y-3.1
X6.63Y-3.7
T3
X7.06Y-2.39
X7.06Y-2.49
X7.06Y-2.59
X7.06Y-2.69
X7.06Y-2.79
X7.06Y-2.89
X7.06Y-2.99
X7.06Y-3.09
X7.06Y-3.19
X7.06Y-3.29
X7.06Y-3.39
X7.06Y-3.49
X7.06Y-3.59
X7.06Y-3.69
X7.06Y-3.79
X7.16Y-2.39
X7.16Y-2.49
X7.16Y-2.59
X7.16Y-2.69
X7.16Y-2.79
X7.16Y-2.89
X7.16Y-2.99
X7.16Y-3.09
X7.16Y-3.19
X7.16Y-3.29
X7.16Y-3.39
X7.16Y-3.49
X7.16Y-3.59
X7.16Y-3.69
X7.16Y-3.79
X5.094Y-3.899
X5.194Y-3.899
X5.294Y-3.899
X5.394Y-3.899
X4.75Y-3.441
X4.75Y-3.541
X4.75Y-3.641
X4.75Y-3.741
X4.75Y-3.841
X4.85Y-3.441
X4.85Y-3.541
X4.85Y-3.641
X4.85Y-3.741
X4.85Y-3.841
X6.275Y-2.86
X6.375Y-2.86
X4.42Y-2.39
X4.42Y-2.49
X4.42Y-2.59
X4.42Y-2.69
X4.42Y-2.79
X4.42Y-2.89
X4.42Y-2.99
X4.42Y-3.09
X4.42Y-3.19
X4.42Y-3.29
X4.52Y-2.39
X4.52Y-2.49
X4.52Y-2.59
X4.52Y-2.69
X4.52Y-2.79
X4.52Y-2.89
X4.52Y-2.99
X4.52Y-3.09
X4.52Y-3.19
X4.52Y-3.29
X5.565Y-3.9
X5.665Y-3.9
X5.765Y-3.9
X5.865Y-3.9
X5.965Y-3.9
T4
X4.456Y-3.751
X4.456Y-3.851
X4.456Y-3.951
X4.456Y-4.051
X4.456Y-4.151
X4.456Y-4.251
X4.456Y-4.351
X4.456Y-4.451
X4.456Y-4.551
X4.456Y-4.651
X4.556Y-3.751
X4.556Y-3.851
X4.556Y-3.951
X4.556Y-4.051
X4.556Y-4.151
X4.556Y-4.251
X4.556Y-4.351
X4.556Y-4.451
X4.556Y-4.551
X4.556Y-4.651
T5
X6.84Y-2.305
X6.84Y-4.12
X4.89Y-4.12
T0
M30
