G04 #@! TF.GenerationSoftware,KiCad,Pcbnew,5.1.5+dfsg1-2build2*
G04 #@! TF.CreationDate,2021-08-24T22:34:42-04:00*
G04 #@! TF.ProjectId,U1MB600XL,55314d42-3630-4305-984c-2e6b69636164,1*
G04 #@! TF.SameCoordinates,Original*
G04 #@! TF.FileFunction,Soldermask,Top*
G04 #@! TF.FilePolarity,Negative*
%FSLAX46Y46*%
G04 Gerber Fmt 4.6, Leading zero omitted, Abs format (unit mm)*
G04 Created by KiCad (PCBNEW 5.1.5+dfsg1-2build2) date 2021-08-24 22:34:42*
%MOMM*%
%LPD*%
G04 APERTURE LIST*
%ADD10C,0.100000*%
G04 APERTURE END LIST*
D10*
G36*
X116636800Y-119049800D02*
G01*
X114808000Y-119049800D01*
X114808000Y-117221000D01*
X116636800Y-117221000D01*
X116636800Y-119049800D01*
G37*
G36*
X113360791Y-117238570D02*
G01*
X113449123Y-117256140D01*
X113615531Y-117325069D01*
X113765296Y-117425139D01*
X113892661Y-117552504D01*
X113992731Y-117702269D01*
X114061660Y-117868677D01*
X114096800Y-118045341D01*
X114096800Y-118225459D01*
X114061660Y-118402123D01*
X113992731Y-118568531D01*
X113892661Y-118718296D01*
X113765296Y-118845661D01*
X113615531Y-118945731D01*
X113449123Y-119014660D01*
X113360791Y-119032230D01*
X113272461Y-119049800D01*
X113092339Y-119049800D01*
X113004009Y-119032230D01*
X112915677Y-119014660D01*
X112749269Y-118945731D01*
X112599504Y-118845661D01*
X112472139Y-118718296D01*
X112372069Y-118568531D01*
X112303140Y-118402123D01*
X112268000Y-118225459D01*
X112268000Y-118045341D01*
X112303140Y-117868677D01*
X112372069Y-117702269D01*
X112472139Y-117552504D01*
X112599504Y-117425139D01*
X112749269Y-117325069D01*
X112915677Y-117256140D01*
X113004009Y-117238570D01*
X113092339Y-117221000D01*
X113272461Y-117221000D01*
X113360791Y-117238570D01*
G37*
G36*
X115900791Y-114698570D02*
G01*
X115989123Y-114716140D01*
X116155531Y-114785069D01*
X116305296Y-114885139D01*
X116432661Y-115012504D01*
X116532731Y-115162269D01*
X116601660Y-115328677D01*
X116636800Y-115505341D01*
X116636800Y-115685459D01*
X116601660Y-115862123D01*
X116532731Y-116028531D01*
X116432661Y-116178296D01*
X116305296Y-116305661D01*
X116155531Y-116405731D01*
X115989123Y-116474660D01*
X115900791Y-116492230D01*
X115812461Y-116509800D01*
X115632339Y-116509800D01*
X115544009Y-116492230D01*
X115455677Y-116474660D01*
X115289269Y-116405731D01*
X115139504Y-116305661D01*
X115012139Y-116178296D01*
X114912069Y-116028531D01*
X114843140Y-115862123D01*
X114808000Y-115685459D01*
X114808000Y-115505341D01*
X114843140Y-115328677D01*
X114912069Y-115162269D01*
X115012139Y-115012504D01*
X115139504Y-114885139D01*
X115289269Y-114785069D01*
X115455677Y-114716140D01*
X115544009Y-114698570D01*
X115632339Y-114681000D01*
X115812461Y-114681000D01*
X115900791Y-114698570D01*
G37*
G36*
X113360791Y-114698570D02*
G01*
X113449123Y-114716140D01*
X113615531Y-114785069D01*
X113765296Y-114885139D01*
X113892661Y-115012504D01*
X113992731Y-115162269D01*
X114061660Y-115328677D01*
X114096800Y-115505341D01*
X114096800Y-115685459D01*
X114061660Y-115862123D01*
X113992731Y-116028531D01*
X113892661Y-116178296D01*
X113765296Y-116305661D01*
X113615531Y-116405731D01*
X113449123Y-116474660D01*
X113360791Y-116492230D01*
X113272461Y-116509800D01*
X113092339Y-116509800D01*
X113004009Y-116492230D01*
X112915677Y-116474660D01*
X112749269Y-116405731D01*
X112599504Y-116305661D01*
X112472139Y-116178296D01*
X112372069Y-116028531D01*
X112303140Y-115862123D01*
X112268000Y-115685459D01*
X112268000Y-115505341D01*
X112303140Y-115328677D01*
X112372069Y-115162269D01*
X112472139Y-115012504D01*
X112599504Y-114885139D01*
X112749269Y-114785069D01*
X112915677Y-114716140D01*
X113004009Y-114698570D01*
X113092339Y-114681000D01*
X113272461Y-114681000D01*
X113360791Y-114698570D01*
G37*
G36*
X115900791Y-112158570D02*
G01*
X115989123Y-112176140D01*
X116155531Y-112245069D01*
X116305296Y-112345139D01*
X116432661Y-112472504D01*
X116532731Y-112622269D01*
X116601660Y-112788677D01*
X116636800Y-112965341D01*
X116636800Y-113145459D01*
X116601660Y-113322123D01*
X116532731Y-113488531D01*
X116432661Y-113638296D01*
X116305296Y-113765661D01*
X116155531Y-113865731D01*
X115989123Y-113934660D01*
X115900791Y-113952230D01*
X115812461Y-113969800D01*
X115632339Y-113969800D01*
X115544009Y-113952230D01*
X115455677Y-113934660D01*
X115289269Y-113865731D01*
X115139504Y-113765661D01*
X115012139Y-113638296D01*
X114912069Y-113488531D01*
X114843140Y-113322123D01*
X114808000Y-113145459D01*
X114808000Y-112965341D01*
X114843140Y-112788677D01*
X114912069Y-112622269D01*
X115012139Y-112472504D01*
X115139504Y-112345139D01*
X115289269Y-112245069D01*
X115455677Y-112176140D01*
X115544009Y-112158570D01*
X115632339Y-112141000D01*
X115812461Y-112141000D01*
X115900791Y-112158570D01*
G37*
G36*
X113360791Y-112158570D02*
G01*
X113449123Y-112176140D01*
X113615531Y-112245069D01*
X113765296Y-112345139D01*
X113892661Y-112472504D01*
X113992731Y-112622269D01*
X114061660Y-112788677D01*
X114096800Y-112965341D01*
X114096800Y-113145459D01*
X114061660Y-113322123D01*
X113992731Y-113488531D01*
X113892661Y-113638296D01*
X113765296Y-113765661D01*
X113615531Y-113865731D01*
X113449123Y-113934660D01*
X113360791Y-113952230D01*
X113272461Y-113969800D01*
X113092339Y-113969800D01*
X113004009Y-113952230D01*
X112915677Y-113934660D01*
X112749269Y-113865731D01*
X112599504Y-113765661D01*
X112472139Y-113638296D01*
X112372069Y-113488531D01*
X112303140Y-113322123D01*
X112268000Y-113145459D01*
X112268000Y-112965341D01*
X112303140Y-112788677D01*
X112372069Y-112622269D01*
X112472139Y-112472504D01*
X112599504Y-112345139D01*
X112749269Y-112245069D01*
X112915677Y-112176140D01*
X113004009Y-112158570D01*
X113092339Y-112141000D01*
X113272461Y-112141000D01*
X113360791Y-112158570D01*
G37*
G36*
X115900791Y-109618570D02*
G01*
X115989123Y-109636140D01*
X116155531Y-109705069D01*
X116305296Y-109805139D01*
X116432661Y-109932504D01*
X116532731Y-110082269D01*
X116601660Y-110248677D01*
X116636800Y-110425341D01*
X116636800Y-110605459D01*
X116601660Y-110782123D01*
X116532731Y-110948531D01*
X116432661Y-111098296D01*
X116305296Y-111225661D01*
X116155531Y-111325731D01*
X115989123Y-111394660D01*
X115900791Y-111412230D01*
X115812461Y-111429800D01*
X115632339Y-111429800D01*
X115544009Y-111412230D01*
X115455677Y-111394660D01*
X115289269Y-111325731D01*
X115139504Y-111225661D01*
X115012139Y-111098296D01*
X114912069Y-110948531D01*
X114843140Y-110782123D01*
X114808000Y-110605459D01*
X114808000Y-110425341D01*
X114843140Y-110248677D01*
X114912069Y-110082269D01*
X115012139Y-109932504D01*
X115139504Y-109805139D01*
X115289269Y-109705069D01*
X115455677Y-109636140D01*
X115544009Y-109618570D01*
X115632339Y-109601000D01*
X115812461Y-109601000D01*
X115900791Y-109618570D01*
G37*
G36*
X113360791Y-109618570D02*
G01*
X113449123Y-109636140D01*
X113615531Y-109705069D01*
X113765296Y-109805139D01*
X113892661Y-109932504D01*
X113992731Y-110082269D01*
X114061660Y-110248677D01*
X114096800Y-110425341D01*
X114096800Y-110605459D01*
X114061660Y-110782123D01*
X113992731Y-110948531D01*
X113892661Y-111098296D01*
X113765296Y-111225661D01*
X113615531Y-111325731D01*
X113449123Y-111394660D01*
X113360791Y-111412230D01*
X113272461Y-111429800D01*
X113092339Y-111429800D01*
X113004009Y-111412230D01*
X112915677Y-111394660D01*
X112749269Y-111325731D01*
X112599504Y-111225661D01*
X112472139Y-111098296D01*
X112372069Y-110948531D01*
X112303140Y-110782123D01*
X112268000Y-110605459D01*
X112268000Y-110425341D01*
X112303140Y-110248677D01*
X112372069Y-110082269D01*
X112472139Y-109932504D01*
X112599504Y-109805139D01*
X112749269Y-109705069D01*
X112915677Y-109636140D01*
X113004009Y-109618570D01*
X113092339Y-109601000D01*
X113272461Y-109601000D01*
X113360791Y-109618570D01*
G37*
G36*
X113360791Y-107078570D02*
G01*
X113449123Y-107096140D01*
X113615531Y-107165069D01*
X113765296Y-107265139D01*
X113892661Y-107392504D01*
X113992731Y-107542269D01*
X114061660Y-107708677D01*
X114096800Y-107885341D01*
X114096800Y-108065459D01*
X114061660Y-108242123D01*
X113992731Y-108408531D01*
X113892661Y-108558296D01*
X113765296Y-108685661D01*
X113615531Y-108785731D01*
X113449123Y-108854660D01*
X113360791Y-108872230D01*
X113272461Y-108889800D01*
X113092339Y-108889800D01*
X113004009Y-108872230D01*
X112915677Y-108854660D01*
X112749269Y-108785731D01*
X112599504Y-108685661D01*
X112472139Y-108558296D01*
X112372069Y-108408531D01*
X112303140Y-108242123D01*
X112268000Y-108065459D01*
X112268000Y-107885341D01*
X112303140Y-107708677D01*
X112372069Y-107542269D01*
X112472139Y-107392504D01*
X112599504Y-107265139D01*
X112749269Y-107165069D01*
X112915677Y-107096140D01*
X113004009Y-107078570D01*
X113092339Y-107061000D01*
X113272461Y-107061000D01*
X113360791Y-107078570D01*
G37*
G36*
X115900791Y-107078570D02*
G01*
X115989123Y-107096140D01*
X116155531Y-107165069D01*
X116305296Y-107265139D01*
X116432661Y-107392504D01*
X116532731Y-107542269D01*
X116601660Y-107708677D01*
X116636800Y-107885341D01*
X116636800Y-108065459D01*
X116601660Y-108242123D01*
X116532731Y-108408531D01*
X116432661Y-108558296D01*
X116305296Y-108685661D01*
X116155531Y-108785731D01*
X115989123Y-108854660D01*
X115900791Y-108872230D01*
X115812461Y-108889800D01*
X115632339Y-108889800D01*
X115544009Y-108872230D01*
X115455677Y-108854660D01*
X115289269Y-108785731D01*
X115139504Y-108685661D01*
X115012139Y-108558296D01*
X114912069Y-108408531D01*
X114843140Y-108242123D01*
X114808000Y-108065459D01*
X114808000Y-107885341D01*
X114843140Y-107708677D01*
X114912069Y-107542269D01*
X115012139Y-107392504D01*
X115139504Y-107265139D01*
X115289269Y-107165069D01*
X115455677Y-107096140D01*
X115544009Y-107078570D01*
X115632339Y-107061000D01*
X115812461Y-107061000D01*
X115900791Y-107078570D01*
G37*
G36*
X174213188Y-101428432D02*
G01*
X174684226Y-101522127D01*
X175275832Y-101767178D01*
X175808265Y-102122938D01*
X176261062Y-102575735D01*
X176616822Y-103108168D01*
X176861873Y-103699774D01*
X176986800Y-104327825D01*
X176986800Y-104968175D01*
X176861873Y-105596226D01*
X176616822Y-106187832D01*
X176261062Y-106720265D01*
X175808265Y-107173062D01*
X175275832Y-107528822D01*
X174684226Y-107773873D01*
X174213188Y-107867568D01*
X174056176Y-107898800D01*
X173415824Y-107898800D01*
X173258812Y-107867568D01*
X172787774Y-107773873D01*
X172196168Y-107528822D01*
X171663735Y-107173062D01*
X171210938Y-106720265D01*
X170855178Y-106187832D01*
X170610127Y-105596226D01*
X170485200Y-104968175D01*
X170485200Y-104327825D01*
X170610127Y-103699774D01*
X170855178Y-103108168D01*
X171210938Y-102575735D01*
X171663735Y-102122938D01*
X172196168Y-101767178D01*
X172787774Y-101522127D01*
X173258812Y-101428432D01*
X173415824Y-101397200D01*
X174056176Y-101397200D01*
X174213188Y-101428432D01*
G37*
G36*
X124683188Y-101428432D02*
G01*
X125154226Y-101522127D01*
X125745832Y-101767178D01*
X126278265Y-102122938D01*
X126731062Y-102575735D01*
X127086822Y-103108168D01*
X127331873Y-103699774D01*
X127456800Y-104327825D01*
X127456800Y-104968175D01*
X127331873Y-105596226D01*
X127086822Y-106187832D01*
X126731062Y-106720265D01*
X126278265Y-107173062D01*
X125745832Y-107528822D01*
X125154226Y-107773873D01*
X124683188Y-107867568D01*
X124526176Y-107898800D01*
X123885824Y-107898800D01*
X123728812Y-107867568D01*
X123257774Y-107773873D01*
X122666168Y-107528822D01*
X122133735Y-107173062D01*
X121680938Y-106720265D01*
X121325178Y-106187832D01*
X121080127Y-105596226D01*
X120955200Y-104968175D01*
X120955200Y-104327825D01*
X121080127Y-103699774D01*
X121325178Y-103108168D01*
X121680938Y-102575735D01*
X122133735Y-102122938D01*
X122666168Y-101767178D01*
X123257774Y-101522127D01*
X123728812Y-101428432D01*
X123885824Y-101397200D01*
X124526176Y-101397200D01*
X124683188Y-101428432D01*
G37*
G36*
X115900791Y-104538570D02*
G01*
X115989123Y-104556140D01*
X116155531Y-104625069D01*
X116305296Y-104725139D01*
X116432661Y-104852504D01*
X116532731Y-105002269D01*
X116601660Y-105168677D01*
X116601660Y-105168679D01*
X116636800Y-105345339D01*
X116636800Y-105525461D01*
X116622724Y-105596226D01*
X116601660Y-105702123D01*
X116532731Y-105868531D01*
X116432661Y-106018296D01*
X116305296Y-106145661D01*
X116155531Y-106245731D01*
X115989123Y-106314660D01*
X115900791Y-106332230D01*
X115812461Y-106349800D01*
X115632339Y-106349800D01*
X115544009Y-106332230D01*
X115455677Y-106314660D01*
X115289269Y-106245731D01*
X115139504Y-106145661D01*
X115012139Y-106018296D01*
X114912069Y-105868531D01*
X114843140Y-105702123D01*
X114822076Y-105596226D01*
X114808000Y-105525461D01*
X114808000Y-105345339D01*
X114843140Y-105168679D01*
X114843140Y-105168677D01*
X114912069Y-105002269D01*
X115012139Y-104852504D01*
X115139504Y-104725139D01*
X115289269Y-104625069D01*
X115455677Y-104556140D01*
X115544009Y-104538570D01*
X115632339Y-104521000D01*
X115812461Y-104521000D01*
X115900791Y-104538570D01*
G37*
G36*
X113360791Y-104538570D02*
G01*
X113449123Y-104556140D01*
X113615531Y-104625069D01*
X113765296Y-104725139D01*
X113892661Y-104852504D01*
X113992731Y-105002269D01*
X114061660Y-105168677D01*
X114061660Y-105168679D01*
X114096800Y-105345339D01*
X114096800Y-105525461D01*
X114082724Y-105596226D01*
X114061660Y-105702123D01*
X113992731Y-105868531D01*
X113892661Y-106018296D01*
X113765296Y-106145661D01*
X113615531Y-106245731D01*
X113449123Y-106314660D01*
X113360791Y-106332230D01*
X113272461Y-106349800D01*
X113092339Y-106349800D01*
X113004009Y-106332230D01*
X112915677Y-106314660D01*
X112749269Y-106245731D01*
X112599504Y-106145661D01*
X112472139Y-106018296D01*
X112372069Y-105868531D01*
X112303140Y-105702123D01*
X112282076Y-105596226D01*
X112268000Y-105525461D01*
X112268000Y-105345339D01*
X112303140Y-105168679D01*
X112303140Y-105168677D01*
X112372069Y-105002269D01*
X112472139Y-104852504D01*
X112599504Y-104725139D01*
X112749269Y-104625069D01*
X112915677Y-104556140D01*
X113004009Y-104538570D01*
X113092339Y-104521000D01*
X113272461Y-104521000D01*
X113360791Y-104538570D01*
G37*
G36*
X115900791Y-101998570D02*
G01*
X115989123Y-102016140D01*
X116155531Y-102085069D01*
X116305296Y-102185139D01*
X116432661Y-102312504D01*
X116532731Y-102462269D01*
X116601660Y-102628677D01*
X116636800Y-102805341D01*
X116636800Y-102985459D01*
X116601660Y-103162123D01*
X116532731Y-103328531D01*
X116432661Y-103478296D01*
X116305296Y-103605661D01*
X116155531Y-103705731D01*
X115989123Y-103774660D01*
X115900791Y-103792230D01*
X115812461Y-103809800D01*
X115632339Y-103809800D01*
X115544009Y-103792230D01*
X115455677Y-103774660D01*
X115289269Y-103705731D01*
X115139504Y-103605661D01*
X115012139Y-103478296D01*
X114912069Y-103328531D01*
X114843140Y-103162123D01*
X114808000Y-102985459D01*
X114808000Y-102805341D01*
X114843140Y-102628677D01*
X114912069Y-102462269D01*
X115012139Y-102312504D01*
X115139504Y-102185139D01*
X115289269Y-102085069D01*
X115455677Y-102016140D01*
X115544009Y-101998570D01*
X115632339Y-101981000D01*
X115812461Y-101981000D01*
X115900791Y-101998570D01*
G37*
G36*
X113360791Y-101998570D02*
G01*
X113449123Y-102016140D01*
X113615531Y-102085069D01*
X113765296Y-102185139D01*
X113892661Y-102312504D01*
X113992731Y-102462269D01*
X114061660Y-102628677D01*
X114096800Y-102805341D01*
X114096800Y-102985459D01*
X114061660Y-103162123D01*
X113992731Y-103328531D01*
X113892661Y-103478296D01*
X113765296Y-103605661D01*
X113615531Y-103705731D01*
X113449123Y-103774660D01*
X113360791Y-103792230D01*
X113272461Y-103809800D01*
X113092339Y-103809800D01*
X113004009Y-103792230D01*
X112915677Y-103774660D01*
X112749269Y-103705731D01*
X112599504Y-103605661D01*
X112472139Y-103478296D01*
X112372069Y-103328531D01*
X112303140Y-103162123D01*
X112268000Y-102985459D01*
X112268000Y-102805341D01*
X112303140Y-102628677D01*
X112372069Y-102462269D01*
X112472139Y-102312504D01*
X112599504Y-102185139D01*
X112749269Y-102085069D01*
X112915677Y-102016140D01*
X113004009Y-101998570D01*
X113092339Y-101981000D01*
X113272461Y-101981000D01*
X113360791Y-101998570D01*
G37*
G36*
X115900791Y-99458570D02*
G01*
X115989123Y-99476140D01*
X116155531Y-99545069D01*
X116305296Y-99645139D01*
X116432661Y-99772504D01*
X116532731Y-99922269D01*
X116601660Y-100088677D01*
X116636800Y-100265341D01*
X116636800Y-100445459D01*
X116601660Y-100622123D01*
X116532731Y-100788531D01*
X116432661Y-100938296D01*
X116305296Y-101065661D01*
X116155531Y-101165731D01*
X115989123Y-101234660D01*
X115900791Y-101252230D01*
X115812461Y-101269800D01*
X115632339Y-101269800D01*
X115544009Y-101252230D01*
X115455677Y-101234660D01*
X115289269Y-101165731D01*
X115139504Y-101065661D01*
X115012139Y-100938296D01*
X114912069Y-100788531D01*
X114843140Y-100622123D01*
X114808000Y-100445459D01*
X114808000Y-100265341D01*
X114843140Y-100088677D01*
X114912069Y-99922269D01*
X115012139Y-99772504D01*
X115139504Y-99645139D01*
X115289269Y-99545069D01*
X115455677Y-99476140D01*
X115544009Y-99458570D01*
X115632339Y-99441000D01*
X115812461Y-99441000D01*
X115900791Y-99458570D01*
G37*
G36*
X113360791Y-99458570D02*
G01*
X113449123Y-99476140D01*
X113615531Y-99545069D01*
X113765296Y-99645139D01*
X113892661Y-99772504D01*
X113992731Y-99922269D01*
X114061660Y-100088677D01*
X114096800Y-100265341D01*
X114096800Y-100445459D01*
X114061660Y-100622123D01*
X113992731Y-100788531D01*
X113892661Y-100938296D01*
X113765296Y-101065661D01*
X113615531Y-101165731D01*
X113449123Y-101234660D01*
X113360791Y-101252230D01*
X113272461Y-101269800D01*
X113092339Y-101269800D01*
X113004009Y-101252230D01*
X112915677Y-101234660D01*
X112749269Y-101165731D01*
X112599504Y-101065661D01*
X112472139Y-100938296D01*
X112372069Y-100788531D01*
X112303140Y-100622123D01*
X112268000Y-100445459D01*
X112268000Y-100265341D01*
X112303140Y-100088677D01*
X112372069Y-99922269D01*
X112472139Y-99772504D01*
X112599504Y-99645139D01*
X112749269Y-99545069D01*
X112915677Y-99476140D01*
X113004009Y-99458570D01*
X113092339Y-99441000D01*
X113272461Y-99441000D01*
X113360791Y-99458570D01*
G37*
G36*
X146693754Y-98193817D02*
G01*
X146857689Y-98261721D01*
X147005227Y-98360303D01*
X147130697Y-98485773D01*
X147229279Y-98633311D01*
X147297183Y-98797246D01*
X147331800Y-98971279D01*
X147331800Y-99148721D01*
X147297183Y-99322754D01*
X147229279Y-99486689D01*
X147130697Y-99634227D01*
X147005227Y-99759697D01*
X146857689Y-99858279D01*
X146693754Y-99926183D01*
X146519721Y-99960800D01*
X146342279Y-99960800D01*
X146168246Y-99926183D01*
X146004311Y-99858279D01*
X145856773Y-99759697D01*
X145731303Y-99634227D01*
X145632721Y-99486689D01*
X145564817Y-99322754D01*
X145530200Y-99148721D01*
X145530200Y-98971279D01*
X145564817Y-98797246D01*
X145632721Y-98633311D01*
X145731303Y-98485773D01*
X145856773Y-98360303D01*
X146004311Y-98261721D01*
X146168246Y-98193817D01*
X146342279Y-98159200D01*
X146519721Y-98159200D01*
X146693754Y-98193817D01*
G37*
G36*
X141613754Y-98193817D02*
G01*
X141777689Y-98261721D01*
X141925227Y-98360303D01*
X142050697Y-98485773D01*
X142149279Y-98633311D01*
X142217183Y-98797246D01*
X142251800Y-98971279D01*
X142251800Y-99148721D01*
X142217183Y-99322754D01*
X142149279Y-99486689D01*
X142050697Y-99634227D01*
X141925227Y-99759697D01*
X141777689Y-99858279D01*
X141613754Y-99926183D01*
X141439721Y-99960800D01*
X141262279Y-99960800D01*
X141088246Y-99926183D01*
X140924311Y-99858279D01*
X140776773Y-99759697D01*
X140651303Y-99634227D01*
X140552721Y-99486689D01*
X140484817Y-99322754D01*
X140450200Y-99148721D01*
X140450200Y-98971279D01*
X140484817Y-98797246D01*
X140552721Y-98633311D01*
X140651303Y-98485773D01*
X140776773Y-98360303D01*
X140924311Y-98261721D01*
X141088246Y-98193817D01*
X141262279Y-98159200D01*
X141439721Y-98159200D01*
X141613754Y-98193817D01*
G37*
G36*
X144153754Y-98193817D02*
G01*
X144317689Y-98261721D01*
X144465227Y-98360303D01*
X144590697Y-98485773D01*
X144689279Y-98633311D01*
X144757183Y-98797246D01*
X144791800Y-98971279D01*
X144791800Y-99148721D01*
X144757183Y-99322754D01*
X144689279Y-99486689D01*
X144590697Y-99634227D01*
X144465227Y-99759697D01*
X144317689Y-99858279D01*
X144153754Y-99926183D01*
X143979721Y-99960800D01*
X143802279Y-99960800D01*
X143628246Y-99926183D01*
X143464311Y-99858279D01*
X143316773Y-99759697D01*
X143191303Y-99634227D01*
X143092721Y-99486689D01*
X143024817Y-99322754D01*
X142990200Y-99148721D01*
X142990200Y-98971279D01*
X143024817Y-98797246D01*
X143092721Y-98633311D01*
X143191303Y-98485773D01*
X143316773Y-98360303D01*
X143464311Y-98261721D01*
X143628246Y-98193817D01*
X143802279Y-98159200D01*
X143979721Y-98159200D01*
X144153754Y-98193817D01*
G37*
G36*
X152411800Y-99960800D02*
G01*
X150610200Y-99960800D01*
X150610200Y-98159200D01*
X152411800Y-98159200D01*
X152411800Y-99960800D01*
G37*
G36*
X149233754Y-98193817D02*
G01*
X149397689Y-98261721D01*
X149545227Y-98360303D01*
X149670697Y-98485773D01*
X149769279Y-98633311D01*
X149837183Y-98797246D01*
X149871800Y-98971279D01*
X149871800Y-99148721D01*
X149837183Y-99322754D01*
X149769279Y-99486689D01*
X149670697Y-99634227D01*
X149545227Y-99759697D01*
X149397689Y-99858279D01*
X149233754Y-99926183D01*
X149059721Y-99960800D01*
X148882279Y-99960800D01*
X148708246Y-99926183D01*
X148544311Y-99858279D01*
X148396773Y-99759697D01*
X148271303Y-99634227D01*
X148172721Y-99486689D01*
X148104817Y-99322754D01*
X148070200Y-99148721D01*
X148070200Y-98971279D01*
X148104817Y-98797246D01*
X148172721Y-98633311D01*
X148271303Y-98485773D01*
X148396773Y-98360303D01*
X148544311Y-98261721D01*
X148708246Y-98193817D01*
X148882279Y-98159200D01*
X149059721Y-98159200D01*
X149233754Y-98193817D01*
G37*
G36*
X134730354Y-98168417D02*
G01*
X134894289Y-98236321D01*
X135041827Y-98334903D01*
X135167297Y-98460373D01*
X135265879Y-98607911D01*
X135333783Y-98771846D01*
X135368400Y-98945879D01*
X135368400Y-99123321D01*
X135333783Y-99297354D01*
X135265879Y-99461289D01*
X135167297Y-99608827D01*
X135041827Y-99734297D01*
X134894289Y-99832879D01*
X134730354Y-99900783D01*
X134556321Y-99935400D01*
X134378879Y-99935400D01*
X134204846Y-99900783D01*
X134040911Y-99832879D01*
X133893373Y-99734297D01*
X133767903Y-99608827D01*
X133669321Y-99461289D01*
X133601417Y-99297354D01*
X133566800Y-99123321D01*
X133566800Y-98945879D01*
X133601417Y-98771846D01*
X133669321Y-98607911D01*
X133767903Y-98460373D01*
X133893373Y-98334903D01*
X134040911Y-98236321D01*
X134204846Y-98168417D01*
X134378879Y-98133800D01*
X134556321Y-98133800D01*
X134730354Y-98168417D01*
G37*
G36*
X132190354Y-98168417D02*
G01*
X132354289Y-98236321D01*
X132501827Y-98334903D01*
X132627297Y-98460373D01*
X132725879Y-98607911D01*
X132793783Y-98771846D01*
X132828400Y-98945879D01*
X132828400Y-99123321D01*
X132793783Y-99297354D01*
X132725879Y-99461289D01*
X132627297Y-99608827D01*
X132501827Y-99734297D01*
X132354289Y-99832879D01*
X132190354Y-99900783D01*
X132016321Y-99935400D01*
X131838879Y-99935400D01*
X131664846Y-99900783D01*
X131500911Y-99832879D01*
X131353373Y-99734297D01*
X131227903Y-99608827D01*
X131129321Y-99461289D01*
X131061417Y-99297354D01*
X131026800Y-99123321D01*
X131026800Y-98945879D01*
X131061417Y-98771846D01*
X131129321Y-98607911D01*
X131227903Y-98460373D01*
X131353373Y-98334903D01*
X131500911Y-98236321D01*
X131664846Y-98168417D01*
X131838879Y-98133800D01*
X132016321Y-98133800D01*
X132190354Y-98168417D01*
G37*
G36*
X129650354Y-98168417D02*
G01*
X129814289Y-98236321D01*
X129961827Y-98334903D01*
X130087297Y-98460373D01*
X130185879Y-98607911D01*
X130253783Y-98771846D01*
X130288400Y-98945879D01*
X130288400Y-99123321D01*
X130253783Y-99297354D01*
X130185879Y-99461289D01*
X130087297Y-99608827D01*
X129961827Y-99734297D01*
X129814289Y-99832879D01*
X129650354Y-99900783D01*
X129476321Y-99935400D01*
X129298879Y-99935400D01*
X129124846Y-99900783D01*
X128960911Y-99832879D01*
X128813373Y-99734297D01*
X128687903Y-99608827D01*
X128589321Y-99461289D01*
X128521417Y-99297354D01*
X128486800Y-99123321D01*
X128486800Y-98945879D01*
X128521417Y-98771846D01*
X128589321Y-98607911D01*
X128687903Y-98460373D01*
X128813373Y-98334903D01*
X128960911Y-98236321D01*
X129124846Y-98168417D01*
X129298879Y-98133800D01*
X129476321Y-98133800D01*
X129650354Y-98168417D01*
G37*
G36*
X137908400Y-99935400D02*
G01*
X136106800Y-99935400D01*
X136106800Y-98133800D01*
X137908400Y-98133800D01*
X137908400Y-99935400D01*
G37*
G36*
X113360791Y-96918570D02*
G01*
X113449123Y-96936140D01*
X113615531Y-97005069D01*
X113765296Y-97105139D01*
X113892661Y-97232504D01*
X113992731Y-97382269D01*
X114061660Y-97548677D01*
X114096800Y-97725341D01*
X114096800Y-97905459D01*
X114061660Y-98082123D01*
X113992731Y-98248531D01*
X113892661Y-98398296D01*
X113765296Y-98525661D01*
X113615531Y-98625731D01*
X113449123Y-98694660D01*
X113360791Y-98712230D01*
X113272461Y-98729800D01*
X113092339Y-98729800D01*
X113004009Y-98712230D01*
X112915677Y-98694660D01*
X112749269Y-98625731D01*
X112599504Y-98525661D01*
X112472139Y-98398296D01*
X112372069Y-98248531D01*
X112303140Y-98082123D01*
X112268000Y-97905459D01*
X112268000Y-97725341D01*
X112303140Y-97548677D01*
X112372069Y-97382269D01*
X112472139Y-97232504D01*
X112599504Y-97105139D01*
X112749269Y-97005069D01*
X112915677Y-96936140D01*
X113004009Y-96918570D01*
X113092339Y-96901000D01*
X113272461Y-96901000D01*
X113360791Y-96918570D01*
G37*
G36*
X115900791Y-96918570D02*
G01*
X115989123Y-96936140D01*
X116155531Y-97005069D01*
X116305296Y-97105139D01*
X116432661Y-97232504D01*
X116532731Y-97382269D01*
X116601660Y-97548677D01*
X116636800Y-97725341D01*
X116636800Y-97905459D01*
X116601660Y-98082123D01*
X116532731Y-98248531D01*
X116432661Y-98398296D01*
X116305296Y-98525661D01*
X116155531Y-98625731D01*
X115989123Y-98694660D01*
X115900791Y-98712230D01*
X115812461Y-98729800D01*
X115632339Y-98729800D01*
X115544009Y-98712230D01*
X115455677Y-98694660D01*
X115289269Y-98625731D01*
X115139504Y-98525661D01*
X115012139Y-98398296D01*
X114912069Y-98248531D01*
X114843140Y-98082123D01*
X114808000Y-97905459D01*
X114808000Y-97725341D01*
X114843140Y-97548677D01*
X114912069Y-97382269D01*
X115012139Y-97232504D01*
X115139504Y-97105139D01*
X115289269Y-97005069D01*
X115455677Y-96936140D01*
X115544009Y-96918570D01*
X115632339Y-96901000D01*
X115812461Y-96901000D01*
X115900791Y-96918570D01*
G37*
G36*
X121550800Y-98462200D02*
G01*
X119749200Y-98462200D01*
X119749200Y-96660600D01*
X121550800Y-96660600D01*
X121550800Y-98462200D01*
G37*
G36*
X123452754Y-96695217D02*
G01*
X123616689Y-96763121D01*
X123764227Y-96861703D01*
X123889697Y-96987173D01*
X123988279Y-97134711D01*
X124056183Y-97298646D01*
X124090800Y-97472679D01*
X124090800Y-97650121D01*
X124056183Y-97824154D01*
X123988279Y-97988089D01*
X123889697Y-98135627D01*
X123764227Y-98261097D01*
X123616689Y-98359679D01*
X123452754Y-98427583D01*
X123278721Y-98462200D01*
X123101279Y-98462200D01*
X122927246Y-98427583D01*
X122763311Y-98359679D01*
X122615773Y-98261097D01*
X122490303Y-98135627D01*
X122391721Y-97988089D01*
X122323817Y-97824154D01*
X122289200Y-97650121D01*
X122289200Y-97472679D01*
X122323817Y-97298646D01*
X122391721Y-97134711D01*
X122490303Y-96987173D01*
X122615773Y-96861703D01*
X122763311Y-96763121D01*
X122927246Y-96695217D01*
X123101279Y-96660600D01*
X123278721Y-96660600D01*
X123452754Y-96695217D01*
G37*
G36*
X182126754Y-95399817D02*
G01*
X182290689Y-95467721D01*
X182438227Y-95566303D01*
X182563697Y-95691773D01*
X182662279Y-95839311D01*
X182730183Y-96003246D01*
X182764800Y-96177279D01*
X182764800Y-96354721D01*
X182730183Y-96528754D01*
X182662279Y-96692689D01*
X182563697Y-96840227D01*
X182438227Y-96965697D01*
X182290689Y-97064279D01*
X182126754Y-97132183D01*
X181952721Y-97166800D01*
X181775279Y-97166800D01*
X181601246Y-97132183D01*
X181437311Y-97064279D01*
X181289773Y-96965697D01*
X181164303Y-96840227D01*
X181065721Y-96692689D01*
X180997817Y-96528754D01*
X180963200Y-96354721D01*
X180963200Y-96177279D01*
X180997817Y-96003246D01*
X181065721Y-95839311D01*
X181164303Y-95691773D01*
X181289773Y-95566303D01*
X181437311Y-95467721D01*
X181601246Y-95399817D01*
X181775279Y-95365200D01*
X181952721Y-95365200D01*
X182126754Y-95399817D01*
G37*
G36*
X180224800Y-97166800D02*
G01*
X178423200Y-97166800D01*
X178423200Y-95365200D01*
X180224800Y-95365200D01*
X180224800Y-97166800D01*
G37*
G36*
X113360791Y-94378570D02*
G01*
X113449123Y-94396140D01*
X113615531Y-94465069D01*
X113765296Y-94565139D01*
X113892661Y-94692504D01*
X113992731Y-94842269D01*
X114061660Y-95008677D01*
X114096800Y-95185341D01*
X114096800Y-95365459D01*
X114061660Y-95542123D01*
X113992731Y-95708531D01*
X113892661Y-95858296D01*
X113765296Y-95985661D01*
X113615531Y-96085731D01*
X113449123Y-96154660D01*
X113360791Y-96172230D01*
X113272461Y-96189800D01*
X113092339Y-96189800D01*
X113004009Y-96172230D01*
X112915677Y-96154660D01*
X112749269Y-96085731D01*
X112599504Y-95985661D01*
X112472139Y-95858296D01*
X112372069Y-95708531D01*
X112303140Y-95542123D01*
X112268000Y-95365459D01*
X112268000Y-95185341D01*
X112303140Y-95008677D01*
X112372069Y-94842269D01*
X112472139Y-94692504D01*
X112599504Y-94565139D01*
X112749269Y-94465069D01*
X112915677Y-94396140D01*
X113004009Y-94378570D01*
X113092339Y-94361000D01*
X113272461Y-94361000D01*
X113360791Y-94378570D01*
G37*
G36*
X115900791Y-94378570D02*
G01*
X115989123Y-94396140D01*
X116155531Y-94465069D01*
X116305296Y-94565139D01*
X116432661Y-94692504D01*
X116532731Y-94842269D01*
X116601660Y-95008677D01*
X116636800Y-95185341D01*
X116636800Y-95365459D01*
X116601660Y-95542123D01*
X116532731Y-95708531D01*
X116432661Y-95858296D01*
X116305296Y-95985661D01*
X116155531Y-96085731D01*
X115989123Y-96154660D01*
X115900791Y-96172230D01*
X115812461Y-96189800D01*
X115632339Y-96189800D01*
X115544009Y-96172230D01*
X115455677Y-96154660D01*
X115289269Y-96085731D01*
X115139504Y-95985661D01*
X115012139Y-95858296D01*
X114912069Y-95708531D01*
X114843140Y-95542123D01*
X114808000Y-95365459D01*
X114808000Y-95185341D01*
X114843140Y-95008677D01*
X114912069Y-94842269D01*
X115012139Y-94692504D01*
X115139504Y-94565139D01*
X115289269Y-94465069D01*
X115455677Y-94396140D01*
X115544009Y-94378570D01*
X115632339Y-94361000D01*
X115812461Y-94361000D01*
X115900791Y-94378570D01*
G37*
G36*
X124090800Y-95922200D02*
G01*
X122289200Y-95922200D01*
X122289200Y-94120600D01*
X124090800Y-94120600D01*
X124090800Y-95922200D01*
G37*
G36*
X120912754Y-94155217D02*
G01*
X121076689Y-94223121D01*
X121224227Y-94321703D01*
X121349697Y-94447173D01*
X121448279Y-94594711D01*
X121516183Y-94758646D01*
X121550800Y-94932679D01*
X121550800Y-95110121D01*
X121516183Y-95284154D01*
X121448279Y-95448089D01*
X121349697Y-95595627D01*
X121224227Y-95721097D01*
X121076689Y-95819679D01*
X120912754Y-95887583D01*
X120738721Y-95922200D01*
X120561279Y-95922200D01*
X120387246Y-95887583D01*
X120223311Y-95819679D01*
X120075773Y-95721097D01*
X119950303Y-95595627D01*
X119851721Y-95448089D01*
X119783817Y-95284154D01*
X119749200Y-95110121D01*
X119749200Y-94932679D01*
X119783817Y-94758646D01*
X119851721Y-94594711D01*
X119950303Y-94447173D01*
X120075773Y-94321703D01*
X120223311Y-94223121D01*
X120387246Y-94155217D01*
X120561279Y-94120600D01*
X120738721Y-94120600D01*
X120912754Y-94155217D01*
G37*
G36*
X163570169Y-93161895D02*
G01*
X163725005Y-93226031D01*
X163864354Y-93319140D01*
X163982860Y-93437646D01*
X164075969Y-93576995D01*
X164140105Y-93731831D01*
X164172800Y-93896203D01*
X164172800Y-94063797D01*
X164140105Y-94228169D01*
X164075969Y-94383005D01*
X163982860Y-94522354D01*
X163864354Y-94640860D01*
X163725005Y-94733969D01*
X163570169Y-94798105D01*
X163405797Y-94830800D01*
X163238203Y-94830800D01*
X163073831Y-94798105D01*
X162918995Y-94733969D01*
X162779646Y-94640860D01*
X162661140Y-94522354D01*
X162568031Y-94383005D01*
X162503895Y-94228169D01*
X162471200Y-94063797D01*
X162471200Y-93896203D01*
X162503895Y-93731831D01*
X162568031Y-93576995D01*
X162661140Y-93437646D01*
X162779646Y-93319140D01*
X162918995Y-93226031D01*
X163073831Y-93161895D01*
X163238203Y-93129200D01*
X163405797Y-93129200D01*
X163570169Y-93161895D01*
G37*
G36*
X168650169Y-93161895D02*
G01*
X168805005Y-93226031D01*
X168944354Y-93319140D01*
X169062860Y-93437646D01*
X169155969Y-93576995D01*
X169220105Y-93731831D01*
X169252800Y-93896203D01*
X169252800Y-94063797D01*
X169220105Y-94228169D01*
X169155969Y-94383005D01*
X169062860Y-94522354D01*
X168944354Y-94640860D01*
X168805005Y-94733969D01*
X168650169Y-94798105D01*
X168485797Y-94830800D01*
X168318203Y-94830800D01*
X168153831Y-94798105D01*
X167998995Y-94733969D01*
X167859646Y-94640860D01*
X167741140Y-94522354D01*
X167648031Y-94383005D01*
X167583895Y-94228169D01*
X167551200Y-94063797D01*
X167551200Y-93896203D01*
X167583895Y-93731831D01*
X167648031Y-93576995D01*
X167741140Y-93437646D01*
X167859646Y-93319140D01*
X167998995Y-93226031D01*
X168153831Y-93161895D01*
X168318203Y-93129200D01*
X168485797Y-93129200D01*
X168650169Y-93161895D01*
G37*
G36*
X166110169Y-93161895D02*
G01*
X166265005Y-93226031D01*
X166404354Y-93319140D01*
X166522860Y-93437646D01*
X166615969Y-93576995D01*
X166680105Y-93731831D01*
X166712800Y-93896203D01*
X166712800Y-94063797D01*
X166680105Y-94228169D01*
X166615969Y-94383005D01*
X166522860Y-94522354D01*
X166404354Y-94640860D01*
X166265005Y-94733969D01*
X166110169Y-94798105D01*
X165945797Y-94830800D01*
X165778203Y-94830800D01*
X165613831Y-94798105D01*
X165458995Y-94733969D01*
X165319646Y-94640860D01*
X165201140Y-94522354D01*
X165108031Y-94383005D01*
X165043895Y-94228169D01*
X165011200Y-94063797D01*
X165011200Y-93896203D01*
X165043895Y-93731831D01*
X165108031Y-93576995D01*
X165201140Y-93437646D01*
X165319646Y-93319140D01*
X165458995Y-93226031D01*
X165613831Y-93161895D01*
X165778203Y-93129200D01*
X165945797Y-93129200D01*
X166110169Y-93161895D01*
G37*
G36*
X161030169Y-93161895D02*
G01*
X161185005Y-93226031D01*
X161324354Y-93319140D01*
X161442860Y-93437646D01*
X161535969Y-93576995D01*
X161600105Y-93731831D01*
X161632800Y-93896203D01*
X161632800Y-94063797D01*
X161600105Y-94228169D01*
X161535969Y-94383005D01*
X161442860Y-94522354D01*
X161324354Y-94640860D01*
X161185005Y-94733969D01*
X161030169Y-94798105D01*
X160865797Y-94830800D01*
X160698203Y-94830800D01*
X160533831Y-94798105D01*
X160378995Y-94733969D01*
X160239646Y-94640860D01*
X160121140Y-94522354D01*
X160028031Y-94383005D01*
X159963895Y-94228169D01*
X159931200Y-94063797D01*
X159931200Y-93896203D01*
X159963895Y-93731831D01*
X160028031Y-93576995D01*
X160121140Y-93437646D01*
X160239646Y-93319140D01*
X160378995Y-93226031D01*
X160533831Y-93161895D01*
X160698203Y-93129200D01*
X160865797Y-93129200D01*
X161030169Y-93161895D01*
G37*
G36*
X158490169Y-93161895D02*
G01*
X158645005Y-93226031D01*
X158784354Y-93319140D01*
X158902860Y-93437646D01*
X158995969Y-93576995D01*
X159060105Y-93731831D01*
X159092800Y-93896203D01*
X159092800Y-94063797D01*
X159060105Y-94228169D01*
X158995969Y-94383005D01*
X158902860Y-94522354D01*
X158784354Y-94640860D01*
X158645005Y-94733969D01*
X158490169Y-94798105D01*
X158325797Y-94830800D01*
X158158203Y-94830800D01*
X157993831Y-94798105D01*
X157838995Y-94733969D01*
X157699646Y-94640860D01*
X157581140Y-94522354D01*
X157488031Y-94383005D01*
X157423895Y-94228169D01*
X157391200Y-94063797D01*
X157391200Y-93896203D01*
X157423895Y-93731831D01*
X157488031Y-93576995D01*
X157581140Y-93437646D01*
X157699646Y-93319140D01*
X157838995Y-93226031D01*
X157993831Y-93161895D01*
X158158203Y-93129200D01*
X158325797Y-93129200D01*
X158490169Y-93161895D01*
G37*
G36*
X155950169Y-93161895D02*
G01*
X156105005Y-93226031D01*
X156244354Y-93319140D01*
X156362860Y-93437646D01*
X156455969Y-93576995D01*
X156520105Y-93731831D01*
X156552800Y-93896203D01*
X156552800Y-94063797D01*
X156520105Y-94228169D01*
X156455969Y-94383005D01*
X156362860Y-94522354D01*
X156244354Y-94640860D01*
X156105005Y-94733969D01*
X155950169Y-94798105D01*
X155785797Y-94830800D01*
X155618203Y-94830800D01*
X155453831Y-94798105D01*
X155298995Y-94733969D01*
X155159646Y-94640860D01*
X155041140Y-94522354D01*
X154948031Y-94383005D01*
X154883895Y-94228169D01*
X154851200Y-94063797D01*
X154851200Y-93896203D01*
X154883895Y-93731831D01*
X154948031Y-93576995D01*
X155041140Y-93437646D01*
X155159646Y-93319140D01*
X155298995Y-93226031D01*
X155453831Y-93161895D01*
X155618203Y-93129200D01*
X155785797Y-93129200D01*
X155950169Y-93161895D01*
G37*
G36*
X150870169Y-93161895D02*
G01*
X151025005Y-93226031D01*
X151164354Y-93319140D01*
X151282860Y-93437646D01*
X151375969Y-93576995D01*
X151440105Y-93731831D01*
X151472800Y-93896203D01*
X151472800Y-94063797D01*
X151440105Y-94228169D01*
X151375969Y-94383005D01*
X151282860Y-94522354D01*
X151164354Y-94640860D01*
X151025005Y-94733969D01*
X150870169Y-94798105D01*
X150705797Y-94830800D01*
X150538203Y-94830800D01*
X150373831Y-94798105D01*
X150218995Y-94733969D01*
X150079646Y-94640860D01*
X149961140Y-94522354D01*
X149868031Y-94383005D01*
X149803895Y-94228169D01*
X149771200Y-94063797D01*
X149771200Y-93896203D01*
X149803895Y-93731831D01*
X149868031Y-93576995D01*
X149961140Y-93437646D01*
X150079646Y-93319140D01*
X150218995Y-93226031D01*
X150373831Y-93161895D01*
X150538203Y-93129200D01*
X150705797Y-93129200D01*
X150870169Y-93161895D01*
G37*
G36*
X148330169Y-93161895D02*
G01*
X148485005Y-93226031D01*
X148624354Y-93319140D01*
X148742860Y-93437646D01*
X148835969Y-93576995D01*
X148900105Y-93731831D01*
X148932800Y-93896203D01*
X148932800Y-94063797D01*
X148900105Y-94228169D01*
X148835969Y-94383005D01*
X148742860Y-94522354D01*
X148624354Y-94640860D01*
X148485005Y-94733969D01*
X148330169Y-94798105D01*
X148165797Y-94830800D01*
X147998203Y-94830800D01*
X147833831Y-94798105D01*
X147678995Y-94733969D01*
X147539646Y-94640860D01*
X147421140Y-94522354D01*
X147328031Y-94383005D01*
X147263895Y-94228169D01*
X147231200Y-94063797D01*
X147231200Y-93896203D01*
X147263895Y-93731831D01*
X147328031Y-93576995D01*
X147421140Y-93437646D01*
X147539646Y-93319140D01*
X147678995Y-93226031D01*
X147833831Y-93161895D01*
X147998203Y-93129200D01*
X148165797Y-93129200D01*
X148330169Y-93161895D01*
G37*
G36*
X145790169Y-93161895D02*
G01*
X145945005Y-93226031D01*
X146084354Y-93319140D01*
X146202860Y-93437646D01*
X146295969Y-93576995D01*
X146360105Y-93731831D01*
X146392800Y-93896203D01*
X146392800Y-94063797D01*
X146360105Y-94228169D01*
X146295969Y-94383005D01*
X146202860Y-94522354D01*
X146084354Y-94640860D01*
X145945005Y-94733969D01*
X145790169Y-94798105D01*
X145625797Y-94830800D01*
X145458203Y-94830800D01*
X145293831Y-94798105D01*
X145138995Y-94733969D01*
X144999646Y-94640860D01*
X144881140Y-94522354D01*
X144788031Y-94383005D01*
X144723895Y-94228169D01*
X144691200Y-94063797D01*
X144691200Y-93896203D01*
X144723895Y-93731831D01*
X144788031Y-93576995D01*
X144881140Y-93437646D01*
X144999646Y-93319140D01*
X145138995Y-93226031D01*
X145293831Y-93161895D01*
X145458203Y-93129200D01*
X145625797Y-93129200D01*
X145790169Y-93161895D01*
G37*
G36*
X143250169Y-93161895D02*
G01*
X143405005Y-93226031D01*
X143544354Y-93319140D01*
X143662860Y-93437646D01*
X143755969Y-93576995D01*
X143820105Y-93731831D01*
X143852800Y-93896203D01*
X143852800Y-94063797D01*
X143820105Y-94228169D01*
X143755969Y-94383005D01*
X143662860Y-94522354D01*
X143544354Y-94640860D01*
X143405005Y-94733969D01*
X143250169Y-94798105D01*
X143085797Y-94830800D01*
X142918203Y-94830800D01*
X142753831Y-94798105D01*
X142598995Y-94733969D01*
X142459646Y-94640860D01*
X142341140Y-94522354D01*
X142248031Y-94383005D01*
X142183895Y-94228169D01*
X142151200Y-94063797D01*
X142151200Y-93896203D01*
X142183895Y-93731831D01*
X142248031Y-93576995D01*
X142341140Y-93437646D01*
X142459646Y-93319140D01*
X142598995Y-93226031D01*
X142753831Y-93161895D01*
X142918203Y-93129200D01*
X143085797Y-93129200D01*
X143250169Y-93161895D01*
G37*
G36*
X141312800Y-94830800D02*
G01*
X139611200Y-94830800D01*
X139611200Y-93129200D01*
X141312800Y-93129200D01*
X141312800Y-94830800D01*
G37*
G36*
X153410169Y-93161895D02*
G01*
X153565005Y-93226031D01*
X153704354Y-93319140D01*
X153822860Y-93437646D01*
X153915969Y-93576995D01*
X153980105Y-93731831D01*
X154012800Y-93896203D01*
X154012800Y-94063797D01*
X153980105Y-94228169D01*
X153915969Y-94383005D01*
X153822860Y-94522354D01*
X153704354Y-94640860D01*
X153565005Y-94733969D01*
X153410169Y-94798105D01*
X153245797Y-94830800D01*
X153078203Y-94830800D01*
X152913831Y-94798105D01*
X152758995Y-94733969D01*
X152619646Y-94640860D01*
X152501140Y-94522354D01*
X152408031Y-94383005D01*
X152343895Y-94228169D01*
X152311200Y-94063797D01*
X152311200Y-93896203D01*
X152343895Y-93731831D01*
X152408031Y-93576995D01*
X152501140Y-93437646D01*
X152619646Y-93319140D01*
X152758995Y-93226031D01*
X152913831Y-93161895D01*
X153078203Y-93129200D01*
X153245797Y-93129200D01*
X153410169Y-93161895D01*
G37*
G36*
X182126754Y-92859817D02*
G01*
X182290689Y-92927721D01*
X182438227Y-93026303D01*
X182563697Y-93151773D01*
X182662279Y-93299311D01*
X182730183Y-93463246D01*
X182764800Y-93637279D01*
X182764800Y-93814721D01*
X182730183Y-93988754D01*
X182662279Y-94152689D01*
X182563697Y-94300227D01*
X182438227Y-94425697D01*
X182290689Y-94524279D01*
X182126754Y-94592183D01*
X181952721Y-94626800D01*
X181775279Y-94626800D01*
X181601246Y-94592183D01*
X181437311Y-94524279D01*
X181289773Y-94425697D01*
X181164303Y-94300227D01*
X181065721Y-94152689D01*
X180997817Y-93988754D01*
X180963200Y-93814721D01*
X180963200Y-93637279D01*
X180997817Y-93463246D01*
X181065721Y-93299311D01*
X181164303Y-93151773D01*
X181289773Y-93026303D01*
X181437311Y-92927721D01*
X181601246Y-92859817D01*
X181775279Y-92825200D01*
X181952721Y-92825200D01*
X182126754Y-92859817D01*
G37*
G36*
X179586754Y-92859817D02*
G01*
X179750689Y-92927721D01*
X179898227Y-93026303D01*
X180023697Y-93151773D01*
X180122279Y-93299311D01*
X180190183Y-93463246D01*
X180224800Y-93637279D01*
X180224800Y-93814721D01*
X180190183Y-93988754D01*
X180122279Y-94152689D01*
X180023697Y-94300227D01*
X179898227Y-94425697D01*
X179750689Y-94524279D01*
X179586754Y-94592183D01*
X179412721Y-94626800D01*
X179235279Y-94626800D01*
X179061246Y-94592183D01*
X178897311Y-94524279D01*
X178749773Y-94425697D01*
X178624303Y-94300227D01*
X178525721Y-94152689D01*
X178457817Y-93988754D01*
X178423200Y-93814721D01*
X178423200Y-93637279D01*
X178457817Y-93463246D01*
X178525721Y-93299311D01*
X178624303Y-93151773D01*
X178749773Y-93026303D01*
X178897311Y-92927721D01*
X179061246Y-92859817D01*
X179235279Y-92825200D01*
X179412721Y-92825200D01*
X179586754Y-92859817D01*
G37*
G36*
X123452754Y-91615217D02*
G01*
X123616689Y-91683121D01*
X123764227Y-91781703D01*
X123889697Y-91907173D01*
X123988279Y-92054711D01*
X124056183Y-92218646D01*
X124090800Y-92392679D01*
X124090800Y-92570121D01*
X124056183Y-92744154D01*
X123988279Y-92908089D01*
X123889697Y-93055627D01*
X123764227Y-93181097D01*
X123616689Y-93279679D01*
X123452754Y-93347583D01*
X123278721Y-93382200D01*
X123101279Y-93382200D01*
X122927246Y-93347583D01*
X122763311Y-93279679D01*
X122615773Y-93181097D01*
X122490303Y-93055627D01*
X122391721Y-92908089D01*
X122323817Y-92744154D01*
X122289200Y-92570121D01*
X122289200Y-92392679D01*
X122323817Y-92218646D01*
X122391721Y-92054711D01*
X122490303Y-91907173D01*
X122615773Y-91781703D01*
X122763311Y-91683121D01*
X122927246Y-91615217D01*
X123101279Y-91580600D01*
X123278721Y-91580600D01*
X123452754Y-91615217D01*
G37*
G36*
X120912754Y-91615217D02*
G01*
X121076689Y-91683121D01*
X121224227Y-91781703D01*
X121349697Y-91907173D01*
X121448279Y-92054711D01*
X121516183Y-92218646D01*
X121550800Y-92392679D01*
X121550800Y-92570121D01*
X121516183Y-92744154D01*
X121448279Y-92908089D01*
X121349697Y-93055627D01*
X121224227Y-93181097D01*
X121076689Y-93279679D01*
X120912754Y-93347583D01*
X120738721Y-93382200D01*
X120561279Y-93382200D01*
X120387246Y-93347583D01*
X120223311Y-93279679D01*
X120075773Y-93181097D01*
X119950303Y-93055627D01*
X119851721Y-92908089D01*
X119783817Y-92744154D01*
X119749200Y-92570121D01*
X119749200Y-92392679D01*
X119783817Y-92218646D01*
X119851721Y-92054711D01*
X119950303Y-91907173D01*
X120075773Y-91781703D01*
X120223311Y-91683121D01*
X120387246Y-91615217D01*
X120561279Y-91580600D01*
X120738721Y-91580600D01*
X120912754Y-91615217D01*
G37*
G36*
X179586754Y-90319817D02*
G01*
X179750689Y-90387721D01*
X179898227Y-90486303D01*
X180023697Y-90611773D01*
X180122279Y-90759311D01*
X180190183Y-90923246D01*
X180224800Y-91097279D01*
X180224800Y-91274721D01*
X180190183Y-91448754D01*
X180122279Y-91612689D01*
X180023697Y-91760227D01*
X179898227Y-91885697D01*
X179750689Y-91984279D01*
X179586754Y-92052183D01*
X179412721Y-92086800D01*
X179235279Y-92086800D01*
X179061246Y-92052183D01*
X178897311Y-91984279D01*
X178749773Y-91885697D01*
X178624303Y-91760227D01*
X178525721Y-91612689D01*
X178457817Y-91448754D01*
X178423200Y-91274721D01*
X178423200Y-91097279D01*
X178457817Y-90923246D01*
X178525721Y-90759311D01*
X178624303Y-90611773D01*
X178749773Y-90486303D01*
X178897311Y-90387721D01*
X179061246Y-90319817D01*
X179235279Y-90285200D01*
X179412721Y-90285200D01*
X179586754Y-90319817D01*
G37*
G36*
X182126754Y-90319817D02*
G01*
X182290689Y-90387721D01*
X182438227Y-90486303D01*
X182563697Y-90611773D01*
X182662279Y-90759311D01*
X182730183Y-90923246D01*
X182764800Y-91097279D01*
X182764800Y-91274721D01*
X182730183Y-91448754D01*
X182662279Y-91612689D01*
X182563697Y-91760227D01*
X182438227Y-91885697D01*
X182290689Y-91984279D01*
X182126754Y-92052183D01*
X181952721Y-92086800D01*
X181775279Y-92086800D01*
X181601246Y-92052183D01*
X181437311Y-91984279D01*
X181289773Y-91885697D01*
X181164303Y-91760227D01*
X181065721Y-91612689D01*
X180997817Y-91448754D01*
X180963200Y-91274721D01*
X180963200Y-91097279D01*
X180997817Y-90923246D01*
X181065721Y-90759311D01*
X181164303Y-90611773D01*
X181289773Y-90486303D01*
X181437311Y-90387721D01*
X181601246Y-90319817D01*
X181775279Y-90285200D01*
X181952721Y-90285200D01*
X182126754Y-90319817D01*
G37*
G36*
X120912754Y-89075217D02*
G01*
X121076689Y-89143121D01*
X121224227Y-89241703D01*
X121349697Y-89367173D01*
X121448279Y-89514711D01*
X121516183Y-89678646D01*
X121550800Y-89852679D01*
X121550800Y-90030121D01*
X121516183Y-90204154D01*
X121448279Y-90368089D01*
X121349697Y-90515627D01*
X121224227Y-90641097D01*
X121076689Y-90739679D01*
X120912754Y-90807583D01*
X120738721Y-90842200D01*
X120561279Y-90842200D01*
X120387246Y-90807583D01*
X120223311Y-90739679D01*
X120075773Y-90641097D01*
X119950303Y-90515627D01*
X119851721Y-90368089D01*
X119783817Y-90204154D01*
X119749200Y-90030121D01*
X119749200Y-89852679D01*
X119783817Y-89678646D01*
X119851721Y-89514711D01*
X119950303Y-89367173D01*
X120075773Y-89241703D01*
X120223311Y-89143121D01*
X120387246Y-89075217D01*
X120561279Y-89040600D01*
X120738721Y-89040600D01*
X120912754Y-89075217D01*
G37*
G36*
X123452754Y-89075217D02*
G01*
X123616689Y-89143121D01*
X123764227Y-89241703D01*
X123889697Y-89367173D01*
X123988279Y-89514711D01*
X124056183Y-89678646D01*
X124090800Y-89852679D01*
X124090800Y-90030121D01*
X124056183Y-90204154D01*
X123988279Y-90368089D01*
X123889697Y-90515627D01*
X123764227Y-90641097D01*
X123616689Y-90739679D01*
X123452754Y-90807583D01*
X123278721Y-90842200D01*
X123101279Y-90842200D01*
X122927246Y-90807583D01*
X122763311Y-90739679D01*
X122615773Y-90641097D01*
X122490303Y-90515627D01*
X122391721Y-90368089D01*
X122323817Y-90204154D01*
X122289200Y-90030121D01*
X122289200Y-89852679D01*
X122323817Y-89678646D01*
X122391721Y-89514711D01*
X122490303Y-89367173D01*
X122615773Y-89241703D01*
X122763311Y-89143121D01*
X122927246Y-89075217D01*
X123101279Y-89040600D01*
X123278721Y-89040600D01*
X123452754Y-89075217D01*
G37*
G36*
X182126754Y-87779817D02*
G01*
X182290689Y-87847721D01*
X182438227Y-87946303D01*
X182563697Y-88071773D01*
X182662279Y-88219311D01*
X182730183Y-88383246D01*
X182764800Y-88557279D01*
X182764800Y-88734721D01*
X182730183Y-88908754D01*
X182662279Y-89072689D01*
X182563697Y-89220227D01*
X182438227Y-89345697D01*
X182290689Y-89444279D01*
X182126754Y-89512183D01*
X181952721Y-89546800D01*
X181775279Y-89546800D01*
X181601246Y-89512183D01*
X181437311Y-89444279D01*
X181289773Y-89345697D01*
X181164303Y-89220227D01*
X181065721Y-89072689D01*
X180997817Y-88908754D01*
X180963200Y-88734721D01*
X180963200Y-88557279D01*
X180997817Y-88383246D01*
X181065721Y-88219311D01*
X181164303Y-88071773D01*
X181289773Y-87946303D01*
X181437311Y-87847721D01*
X181601246Y-87779817D01*
X181775279Y-87745200D01*
X181952721Y-87745200D01*
X182126754Y-87779817D01*
G37*
G36*
X179586754Y-87779817D02*
G01*
X179750689Y-87847721D01*
X179898227Y-87946303D01*
X180023697Y-88071773D01*
X180122279Y-88219311D01*
X180190183Y-88383246D01*
X180224800Y-88557279D01*
X180224800Y-88734721D01*
X180190183Y-88908754D01*
X180122279Y-89072689D01*
X180023697Y-89220227D01*
X179898227Y-89345697D01*
X179750689Y-89444279D01*
X179586754Y-89512183D01*
X179412721Y-89546800D01*
X179235279Y-89546800D01*
X179061246Y-89512183D01*
X178897311Y-89444279D01*
X178749773Y-89345697D01*
X178624303Y-89220227D01*
X178525721Y-89072689D01*
X178457817Y-88908754D01*
X178423200Y-88734721D01*
X178423200Y-88557279D01*
X178457817Y-88383246D01*
X178525721Y-88219311D01*
X178624303Y-88071773D01*
X178749773Y-87946303D01*
X178897311Y-87847721D01*
X179061246Y-87779817D01*
X179235279Y-87745200D01*
X179412721Y-87745200D01*
X179586754Y-87779817D01*
G37*
G36*
X123452754Y-86535217D02*
G01*
X123616689Y-86603121D01*
X123764227Y-86701703D01*
X123889697Y-86827173D01*
X123988279Y-86974711D01*
X124056183Y-87138646D01*
X124090800Y-87312679D01*
X124090800Y-87490121D01*
X124056183Y-87664154D01*
X123988279Y-87828089D01*
X123889697Y-87975627D01*
X123764227Y-88101097D01*
X123616689Y-88199679D01*
X123452754Y-88267583D01*
X123278721Y-88302200D01*
X123101279Y-88302200D01*
X122927246Y-88267583D01*
X122763311Y-88199679D01*
X122615773Y-88101097D01*
X122490303Y-87975627D01*
X122391721Y-87828089D01*
X122323817Y-87664154D01*
X122289200Y-87490121D01*
X122289200Y-87312679D01*
X122323817Y-87138646D01*
X122391721Y-86974711D01*
X122490303Y-86827173D01*
X122615773Y-86701703D01*
X122763311Y-86603121D01*
X122927246Y-86535217D01*
X123101279Y-86500600D01*
X123278721Y-86500600D01*
X123452754Y-86535217D01*
G37*
G36*
X120912754Y-86535217D02*
G01*
X121076689Y-86603121D01*
X121224227Y-86701703D01*
X121349697Y-86827173D01*
X121448279Y-86974711D01*
X121516183Y-87138646D01*
X121550800Y-87312679D01*
X121550800Y-87490121D01*
X121516183Y-87664154D01*
X121448279Y-87828089D01*
X121349697Y-87975627D01*
X121224227Y-88101097D01*
X121076689Y-88199679D01*
X120912754Y-88267583D01*
X120738721Y-88302200D01*
X120561279Y-88302200D01*
X120387246Y-88267583D01*
X120223311Y-88199679D01*
X120075773Y-88101097D01*
X119950303Y-87975627D01*
X119851721Y-87828089D01*
X119783817Y-87664154D01*
X119749200Y-87490121D01*
X119749200Y-87312679D01*
X119783817Y-87138646D01*
X119851721Y-86974711D01*
X119950303Y-86827173D01*
X120075773Y-86701703D01*
X120223311Y-86603121D01*
X120387246Y-86535217D01*
X120561279Y-86500600D01*
X120738721Y-86500600D01*
X120912754Y-86535217D01*
G37*
G36*
X182126754Y-85239817D02*
G01*
X182290689Y-85307721D01*
X182438227Y-85406303D01*
X182563697Y-85531773D01*
X182662279Y-85679311D01*
X182730183Y-85843246D01*
X182764800Y-86017279D01*
X182764800Y-86194721D01*
X182730183Y-86368754D01*
X182662279Y-86532689D01*
X182563697Y-86680227D01*
X182438227Y-86805697D01*
X182290689Y-86904279D01*
X182126754Y-86972183D01*
X181952721Y-87006800D01*
X181775279Y-87006800D01*
X181601246Y-86972183D01*
X181437311Y-86904279D01*
X181289773Y-86805697D01*
X181164303Y-86680227D01*
X181065721Y-86532689D01*
X180997817Y-86368754D01*
X180963200Y-86194721D01*
X180963200Y-86017279D01*
X180997817Y-85843246D01*
X181065721Y-85679311D01*
X181164303Y-85531773D01*
X181289773Y-85406303D01*
X181437311Y-85307721D01*
X181601246Y-85239817D01*
X181775279Y-85205200D01*
X181952721Y-85205200D01*
X182126754Y-85239817D01*
G37*
G36*
X179586754Y-85239817D02*
G01*
X179750689Y-85307721D01*
X179898227Y-85406303D01*
X180023697Y-85531773D01*
X180122279Y-85679311D01*
X180190183Y-85843246D01*
X180224800Y-86017279D01*
X180224800Y-86194721D01*
X180190183Y-86368754D01*
X180122279Y-86532689D01*
X180023697Y-86680227D01*
X179898227Y-86805697D01*
X179750689Y-86904279D01*
X179586754Y-86972183D01*
X179412721Y-87006800D01*
X179235279Y-87006800D01*
X179061246Y-86972183D01*
X178897311Y-86904279D01*
X178749773Y-86805697D01*
X178624303Y-86680227D01*
X178525721Y-86532689D01*
X178457817Y-86368754D01*
X178423200Y-86194721D01*
X178423200Y-86017279D01*
X178457817Y-85843246D01*
X178525721Y-85679311D01*
X178624303Y-85531773D01*
X178749773Y-85406303D01*
X178897311Y-85307721D01*
X179061246Y-85239817D01*
X179235279Y-85205200D01*
X179412721Y-85205200D01*
X179586754Y-85239817D01*
G37*
G36*
X182126754Y-82699817D02*
G01*
X182290689Y-82767721D01*
X182438227Y-82866303D01*
X182563697Y-82991773D01*
X182662279Y-83139311D01*
X182730183Y-83303246D01*
X182764800Y-83477279D01*
X182764800Y-83654721D01*
X182730183Y-83828754D01*
X182662279Y-83992689D01*
X182563697Y-84140227D01*
X182438227Y-84265697D01*
X182290689Y-84364279D01*
X182126754Y-84432183D01*
X181952721Y-84466800D01*
X181775279Y-84466800D01*
X181601246Y-84432183D01*
X181437311Y-84364279D01*
X181289773Y-84265697D01*
X181164303Y-84140227D01*
X181065721Y-83992689D01*
X180997817Y-83828754D01*
X180963200Y-83654721D01*
X180963200Y-83477279D01*
X180997817Y-83303246D01*
X181065721Y-83139311D01*
X181164303Y-82991773D01*
X181289773Y-82866303D01*
X181437311Y-82767721D01*
X181601246Y-82699817D01*
X181775279Y-82665200D01*
X181952721Y-82665200D01*
X182126754Y-82699817D01*
G37*
G36*
X179586754Y-82699817D02*
G01*
X179750689Y-82767721D01*
X179898227Y-82866303D01*
X180023697Y-82991773D01*
X180122279Y-83139311D01*
X180190183Y-83303246D01*
X180224800Y-83477279D01*
X180224800Y-83654721D01*
X180190183Y-83828754D01*
X180122279Y-83992689D01*
X180023697Y-84140227D01*
X179898227Y-84265697D01*
X179750689Y-84364279D01*
X179586754Y-84432183D01*
X179412721Y-84466800D01*
X179235279Y-84466800D01*
X179061246Y-84432183D01*
X178897311Y-84364279D01*
X178749773Y-84265697D01*
X178624303Y-84140227D01*
X178525721Y-83992689D01*
X178457817Y-83828754D01*
X178423200Y-83654721D01*
X178423200Y-83477279D01*
X178457817Y-83303246D01*
X178525721Y-83139311D01*
X178624303Y-82991773D01*
X178749773Y-82866303D01*
X178897311Y-82767721D01*
X179061246Y-82699817D01*
X179235279Y-82665200D01*
X179412721Y-82665200D01*
X179586754Y-82699817D01*
G37*
G36*
X115070754Y-82699817D02*
G01*
X115234689Y-82767721D01*
X115382227Y-82866303D01*
X115507697Y-82991773D01*
X115606279Y-83139311D01*
X115674183Y-83303246D01*
X115708800Y-83477279D01*
X115708800Y-83654721D01*
X115674183Y-83828754D01*
X115606279Y-83992689D01*
X115507697Y-84140227D01*
X115382227Y-84265697D01*
X115234689Y-84364279D01*
X115070754Y-84432183D01*
X114896721Y-84466800D01*
X114719279Y-84466800D01*
X114545246Y-84432183D01*
X114381311Y-84364279D01*
X114233773Y-84265697D01*
X114108303Y-84140227D01*
X114009721Y-83992689D01*
X113941817Y-83828754D01*
X113907200Y-83654721D01*
X113907200Y-83477279D01*
X113941817Y-83303246D01*
X114009721Y-83139311D01*
X114108303Y-82991773D01*
X114233773Y-82866303D01*
X114381311Y-82767721D01*
X114545246Y-82699817D01*
X114719279Y-82665200D01*
X114896721Y-82665200D01*
X115070754Y-82699817D01*
G37*
G36*
X113168800Y-84466800D02*
G01*
X111367200Y-84466800D01*
X111367200Y-82665200D01*
X113168800Y-82665200D01*
X113168800Y-84466800D01*
G37*
G36*
X182126754Y-80159817D02*
G01*
X182290689Y-80227721D01*
X182438227Y-80326303D01*
X182563697Y-80451773D01*
X182662279Y-80599311D01*
X182730183Y-80763246D01*
X182764800Y-80937279D01*
X182764800Y-81114721D01*
X182730183Y-81288754D01*
X182662279Y-81452689D01*
X182563697Y-81600227D01*
X182438227Y-81725697D01*
X182290689Y-81824279D01*
X182126754Y-81892183D01*
X181952721Y-81926800D01*
X181775279Y-81926800D01*
X181601246Y-81892183D01*
X181437311Y-81824279D01*
X181289773Y-81725697D01*
X181164303Y-81600227D01*
X181065721Y-81452689D01*
X180997817Y-81288754D01*
X180963200Y-81114721D01*
X180963200Y-80937279D01*
X180997817Y-80763246D01*
X181065721Y-80599311D01*
X181164303Y-80451773D01*
X181289773Y-80326303D01*
X181437311Y-80227721D01*
X181601246Y-80159817D01*
X181775279Y-80125200D01*
X181952721Y-80125200D01*
X182126754Y-80159817D01*
G37*
G36*
X112530754Y-80159817D02*
G01*
X112694689Y-80227721D01*
X112842227Y-80326303D01*
X112967697Y-80451773D01*
X113066279Y-80599311D01*
X113134183Y-80763246D01*
X113168800Y-80937279D01*
X113168800Y-81114721D01*
X113134183Y-81288754D01*
X113066279Y-81452689D01*
X112967697Y-81600227D01*
X112842227Y-81725697D01*
X112694689Y-81824279D01*
X112530754Y-81892183D01*
X112356721Y-81926800D01*
X112179279Y-81926800D01*
X112005246Y-81892183D01*
X111841311Y-81824279D01*
X111693773Y-81725697D01*
X111568303Y-81600227D01*
X111469721Y-81452689D01*
X111401817Y-81288754D01*
X111367200Y-81114721D01*
X111367200Y-80937279D01*
X111401817Y-80763246D01*
X111469721Y-80599311D01*
X111568303Y-80451773D01*
X111693773Y-80326303D01*
X111841311Y-80227721D01*
X112005246Y-80159817D01*
X112179279Y-80125200D01*
X112356721Y-80125200D01*
X112530754Y-80159817D01*
G37*
G36*
X115070754Y-80159817D02*
G01*
X115234689Y-80227721D01*
X115382227Y-80326303D01*
X115507697Y-80451773D01*
X115606279Y-80599311D01*
X115674183Y-80763246D01*
X115708800Y-80937279D01*
X115708800Y-81114721D01*
X115674183Y-81288754D01*
X115606279Y-81452689D01*
X115507697Y-81600227D01*
X115382227Y-81725697D01*
X115234689Y-81824279D01*
X115070754Y-81892183D01*
X114896721Y-81926800D01*
X114719279Y-81926800D01*
X114545246Y-81892183D01*
X114381311Y-81824279D01*
X114233773Y-81725697D01*
X114108303Y-81600227D01*
X114009721Y-81452689D01*
X113941817Y-81288754D01*
X113907200Y-81114721D01*
X113907200Y-80937279D01*
X113941817Y-80763246D01*
X114009721Y-80599311D01*
X114108303Y-80451773D01*
X114233773Y-80326303D01*
X114381311Y-80227721D01*
X114545246Y-80159817D01*
X114719279Y-80125200D01*
X114896721Y-80125200D01*
X115070754Y-80159817D01*
G37*
G36*
X179586754Y-80159817D02*
G01*
X179750689Y-80227721D01*
X179898227Y-80326303D01*
X180023697Y-80451773D01*
X180122279Y-80599311D01*
X180190183Y-80763246D01*
X180224800Y-80937279D01*
X180224800Y-81114721D01*
X180190183Y-81288754D01*
X180122279Y-81452689D01*
X180023697Y-81600227D01*
X179898227Y-81725697D01*
X179750689Y-81824279D01*
X179586754Y-81892183D01*
X179412721Y-81926800D01*
X179235279Y-81926800D01*
X179061246Y-81892183D01*
X178897311Y-81824279D01*
X178749773Y-81725697D01*
X178624303Y-81600227D01*
X178525721Y-81452689D01*
X178457817Y-81288754D01*
X178423200Y-81114721D01*
X178423200Y-80937279D01*
X178457817Y-80763246D01*
X178525721Y-80599311D01*
X178624303Y-80451773D01*
X178749773Y-80326303D01*
X178897311Y-80227721D01*
X179061246Y-80159817D01*
X179235279Y-80125200D01*
X179412721Y-80125200D01*
X179586754Y-80159817D01*
G37*
G36*
X148330169Y-77921895D02*
G01*
X148485005Y-77986031D01*
X148624354Y-78079140D01*
X148742860Y-78197646D01*
X148835969Y-78336995D01*
X148900105Y-78491831D01*
X148932800Y-78656203D01*
X148932800Y-78823797D01*
X148900105Y-78988169D01*
X148835969Y-79143005D01*
X148742860Y-79282354D01*
X148624354Y-79400860D01*
X148485005Y-79493969D01*
X148330169Y-79558105D01*
X148165797Y-79590800D01*
X147998203Y-79590800D01*
X147833831Y-79558105D01*
X147678995Y-79493969D01*
X147539646Y-79400860D01*
X147421140Y-79282354D01*
X147328031Y-79143005D01*
X147263895Y-78988169D01*
X147231200Y-78823797D01*
X147231200Y-78656203D01*
X147263895Y-78491831D01*
X147328031Y-78336995D01*
X147421140Y-78197646D01*
X147539646Y-78079140D01*
X147678995Y-77986031D01*
X147833831Y-77921895D01*
X147998203Y-77889200D01*
X148165797Y-77889200D01*
X148330169Y-77921895D01*
G37*
G36*
X163570169Y-77921895D02*
G01*
X163725005Y-77986031D01*
X163864354Y-78079140D01*
X163982860Y-78197646D01*
X164075969Y-78336995D01*
X164140105Y-78491831D01*
X164172800Y-78656203D01*
X164172800Y-78823797D01*
X164140105Y-78988169D01*
X164075969Y-79143005D01*
X163982860Y-79282354D01*
X163864354Y-79400860D01*
X163725005Y-79493969D01*
X163570169Y-79558105D01*
X163405797Y-79590800D01*
X163238203Y-79590800D01*
X163073831Y-79558105D01*
X162918995Y-79493969D01*
X162779646Y-79400860D01*
X162661140Y-79282354D01*
X162568031Y-79143005D01*
X162503895Y-78988169D01*
X162471200Y-78823797D01*
X162471200Y-78656203D01*
X162503895Y-78491831D01*
X162568031Y-78336995D01*
X162661140Y-78197646D01*
X162779646Y-78079140D01*
X162918995Y-77986031D01*
X163073831Y-77921895D01*
X163238203Y-77889200D01*
X163405797Y-77889200D01*
X163570169Y-77921895D01*
G37*
G36*
X166110169Y-77921895D02*
G01*
X166265005Y-77986031D01*
X166404354Y-78079140D01*
X166522860Y-78197646D01*
X166615969Y-78336995D01*
X166680105Y-78491831D01*
X166712800Y-78656203D01*
X166712800Y-78823797D01*
X166680105Y-78988169D01*
X166615969Y-79143005D01*
X166522860Y-79282354D01*
X166404354Y-79400860D01*
X166265005Y-79493969D01*
X166110169Y-79558105D01*
X165945797Y-79590800D01*
X165778203Y-79590800D01*
X165613831Y-79558105D01*
X165458995Y-79493969D01*
X165319646Y-79400860D01*
X165201140Y-79282354D01*
X165108031Y-79143005D01*
X165043895Y-78988169D01*
X165011200Y-78823797D01*
X165011200Y-78656203D01*
X165043895Y-78491831D01*
X165108031Y-78336995D01*
X165201140Y-78197646D01*
X165319646Y-78079140D01*
X165458995Y-77986031D01*
X165613831Y-77921895D01*
X165778203Y-77889200D01*
X165945797Y-77889200D01*
X166110169Y-77921895D01*
G37*
G36*
X168650169Y-77921895D02*
G01*
X168805005Y-77986031D01*
X168944354Y-78079140D01*
X169062860Y-78197646D01*
X169155969Y-78336995D01*
X169220105Y-78491831D01*
X169252800Y-78656203D01*
X169252800Y-78823797D01*
X169220105Y-78988169D01*
X169155969Y-79143005D01*
X169062860Y-79282354D01*
X168944354Y-79400860D01*
X168805005Y-79493969D01*
X168650169Y-79558105D01*
X168485797Y-79590800D01*
X168318203Y-79590800D01*
X168153831Y-79558105D01*
X167998995Y-79493969D01*
X167859646Y-79400860D01*
X167741140Y-79282354D01*
X167648031Y-79143005D01*
X167583895Y-78988169D01*
X167551200Y-78823797D01*
X167551200Y-78656203D01*
X167583895Y-78491831D01*
X167648031Y-78336995D01*
X167741140Y-78197646D01*
X167859646Y-78079140D01*
X167998995Y-77986031D01*
X168153831Y-77921895D01*
X168318203Y-77889200D01*
X168485797Y-77889200D01*
X168650169Y-77921895D01*
G37*
G36*
X161030169Y-77921895D02*
G01*
X161185005Y-77986031D01*
X161324354Y-78079140D01*
X161442860Y-78197646D01*
X161535969Y-78336995D01*
X161600105Y-78491831D01*
X161632800Y-78656203D01*
X161632800Y-78823797D01*
X161600105Y-78988169D01*
X161535969Y-79143005D01*
X161442860Y-79282354D01*
X161324354Y-79400860D01*
X161185005Y-79493969D01*
X161030169Y-79558105D01*
X160865797Y-79590800D01*
X160698203Y-79590800D01*
X160533831Y-79558105D01*
X160378995Y-79493969D01*
X160239646Y-79400860D01*
X160121140Y-79282354D01*
X160028031Y-79143005D01*
X159963895Y-78988169D01*
X159931200Y-78823797D01*
X159931200Y-78656203D01*
X159963895Y-78491831D01*
X160028031Y-78336995D01*
X160121140Y-78197646D01*
X160239646Y-78079140D01*
X160378995Y-77986031D01*
X160533831Y-77921895D01*
X160698203Y-77889200D01*
X160865797Y-77889200D01*
X161030169Y-77921895D01*
G37*
G36*
X158490169Y-77921895D02*
G01*
X158645005Y-77986031D01*
X158784354Y-78079140D01*
X158902860Y-78197646D01*
X158995969Y-78336995D01*
X159060105Y-78491831D01*
X159092800Y-78656203D01*
X159092800Y-78823797D01*
X159060105Y-78988169D01*
X158995969Y-79143005D01*
X158902860Y-79282354D01*
X158784354Y-79400860D01*
X158645005Y-79493969D01*
X158490169Y-79558105D01*
X158325797Y-79590800D01*
X158158203Y-79590800D01*
X157993831Y-79558105D01*
X157838995Y-79493969D01*
X157699646Y-79400860D01*
X157581140Y-79282354D01*
X157488031Y-79143005D01*
X157423895Y-78988169D01*
X157391200Y-78823797D01*
X157391200Y-78656203D01*
X157423895Y-78491831D01*
X157488031Y-78336995D01*
X157581140Y-78197646D01*
X157699646Y-78079140D01*
X157838995Y-77986031D01*
X157993831Y-77921895D01*
X158158203Y-77889200D01*
X158325797Y-77889200D01*
X158490169Y-77921895D01*
G37*
G36*
X155950169Y-77921895D02*
G01*
X156105005Y-77986031D01*
X156244354Y-78079140D01*
X156362860Y-78197646D01*
X156455969Y-78336995D01*
X156520105Y-78491831D01*
X156552800Y-78656203D01*
X156552800Y-78823797D01*
X156520105Y-78988169D01*
X156455969Y-79143005D01*
X156362860Y-79282354D01*
X156244354Y-79400860D01*
X156105005Y-79493969D01*
X155950169Y-79558105D01*
X155785797Y-79590800D01*
X155618203Y-79590800D01*
X155453831Y-79558105D01*
X155298995Y-79493969D01*
X155159646Y-79400860D01*
X155041140Y-79282354D01*
X154948031Y-79143005D01*
X154883895Y-78988169D01*
X154851200Y-78823797D01*
X154851200Y-78656203D01*
X154883895Y-78491831D01*
X154948031Y-78336995D01*
X155041140Y-78197646D01*
X155159646Y-78079140D01*
X155298995Y-77986031D01*
X155453831Y-77921895D01*
X155618203Y-77889200D01*
X155785797Y-77889200D01*
X155950169Y-77921895D01*
G37*
G36*
X153410169Y-77921895D02*
G01*
X153565005Y-77986031D01*
X153704354Y-78079140D01*
X153822860Y-78197646D01*
X153915969Y-78336995D01*
X153980105Y-78491831D01*
X154012800Y-78656203D01*
X154012800Y-78823797D01*
X153980105Y-78988169D01*
X153915969Y-79143005D01*
X153822860Y-79282354D01*
X153704354Y-79400860D01*
X153565005Y-79493969D01*
X153410169Y-79558105D01*
X153245797Y-79590800D01*
X153078203Y-79590800D01*
X152913831Y-79558105D01*
X152758995Y-79493969D01*
X152619646Y-79400860D01*
X152501140Y-79282354D01*
X152408031Y-79143005D01*
X152343895Y-78988169D01*
X152311200Y-78823797D01*
X152311200Y-78656203D01*
X152343895Y-78491831D01*
X152408031Y-78336995D01*
X152501140Y-78197646D01*
X152619646Y-78079140D01*
X152758995Y-77986031D01*
X152913831Y-77921895D01*
X153078203Y-77889200D01*
X153245797Y-77889200D01*
X153410169Y-77921895D01*
G37*
G36*
X150870169Y-77921895D02*
G01*
X151025005Y-77986031D01*
X151164354Y-78079140D01*
X151282860Y-78197646D01*
X151375969Y-78336995D01*
X151440105Y-78491831D01*
X151472800Y-78656203D01*
X151472800Y-78823797D01*
X151440105Y-78988169D01*
X151375969Y-79143005D01*
X151282860Y-79282354D01*
X151164354Y-79400860D01*
X151025005Y-79493969D01*
X150870169Y-79558105D01*
X150705797Y-79590800D01*
X150538203Y-79590800D01*
X150373831Y-79558105D01*
X150218995Y-79493969D01*
X150079646Y-79400860D01*
X149961140Y-79282354D01*
X149868031Y-79143005D01*
X149803895Y-78988169D01*
X149771200Y-78823797D01*
X149771200Y-78656203D01*
X149803895Y-78491831D01*
X149868031Y-78336995D01*
X149961140Y-78197646D01*
X150079646Y-78079140D01*
X150218995Y-77986031D01*
X150373831Y-77921895D01*
X150538203Y-77889200D01*
X150705797Y-77889200D01*
X150870169Y-77921895D01*
G37*
G36*
X143250169Y-77921895D02*
G01*
X143405005Y-77986031D01*
X143544354Y-78079140D01*
X143662860Y-78197646D01*
X143755969Y-78336995D01*
X143820105Y-78491831D01*
X143852800Y-78656203D01*
X143852800Y-78823797D01*
X143820105Y-78988169D01*
X143755969Y-79143005D01*
X143662860Y-79282354D01*
X143544354Y-79400860D01*
X143405005Y-79493969D01*
X143250169Y-79558105D01*
X143085797Y-79590800D01*
X142918203Y-79590800D01*
X142753831Y-79558105D01*
X142598995Y-79493969D01*
X142459646Y-79400860D01*
X142341140Y-79282354D01*
X142248031Y-79143005D01*
X142183895Y-78988169D01*
X142151200Y-78823797D01*
X142151200Y-78656203D01*
X142183895Y-78491831D01*
X142248031Y-78336995D01*
X142341140Y-78197646D01*
X142459646Y-78079140D01*
X142598995Y-77986031D01*
X142753831Y-77921895D01*
X142918203Y-77889200D01*
X143085797Y-77889200D01*
X143250169Y-77921895D01*
G37*
G36*
X140710169Y-77921895D02*
G01*
X140865005Y-77986031D01*
X141004354Y-78079140D01*
X141122860Y-78197646D01*
X141215969Y-78336995D01*
X141280105Y-78491831D01*
X141312800Y-78656203D01*
X141312800Y-78823797D01*
X141280105Y-78988169D01*
X141215969Y-79143005D01*
X141122860Y-79282354D01*
X141004354Y-79400860D01*
X140865005Y-79493969D01*
X140710169Y-79558105D01*
X140545797Y-79590800D01*
X140378203Y-79590800D01*
X140213831Y-79558105D01*
X140058995Y-79493969D01*
X139919646Y-79400860D01*
X139801140Y-79282354D01*
X139708031Y-79143005D01*
X139643895Y-78988169D01*
X139611200Y-78823797D01*
X139611200Y-78656203D01*
X139643895Y-78491831D01*
X139708031Y-78336995D01*
X139801140Y-78197646D01*
X139919646Y-78079140D01*
X140058995Y-77986031D01*
X140213831Y-77921895D01*
X140378203Y-77889200D01*
X140545797Y-77889200D01*
X140710169Y-77921895D01*
G37*
G36*
X145790169Y-77921895D02*
G01*
X145945005Y-77986031D01*
X146084354Y-78079140D01*
X146202860Y-78197646D01*
X146295969Y-78336995D01*
X146360105Y-78491831D01*
X146392800Y-78656203D01*
X146392800Y-78823797D01*
X146360105Y-78988169D01*
X146295969Y-79143005D01*
X146202860Y-79282354D01*
X146084354Y-79400860D01*
X145945005Y-79493969D01*
X145790169Y-79558105D01*
X145625797Y-79590800D01*
X145458203Y-79590800D01*
X145293831Y-79558105D01*
X145138995Y-79493969D01*
X144999646Y-79400860D01*
X144881140Y-79282354D01*
X144788031Y-79143005D01*
X144723895Y-78988169D01*
X144691200Y-78823797D01*
X144691200Y-78656203D01*
X144723895Y-78491831D01*
X144788031Y-78336995D01*
X144881140Y-78197646D01*
X144999646Y-78079140D01*
X145138995Y-77986031D01*
X145293831Y-77921895D01*
X145458203Y-77889200D01*
X145625797Y-77889200D01*
X145790169Y-77921895D01*
G37*
G36*
X112530754Y-77619817D02*
G01*
X112694689Y-77687721D01*
X112842227Y-77786303D01*
X112967697Y-77911773D01*
X113066279Y-78059311D01*
X113134183Y-78223246D01*
X113168800Y-78397279D01*
X113168800Y-78574721D01*
X113134183Y-78748754D01*
X113066279Y-78912689D01*
X112967697Y-79060227D01*
X112842227Y-79185697D01*
X112694689Y-79284279D01*
X112530754Y-79352183D01*
X112356721Y-79386800D01*
X112179279Y-79386800D01*
X112005246Y-79352183D01*
X111841311Y-79284279D01*
X111693773Y-79185697D01*
X111568303Y-79060227D01*
X111469721Y-78912689D01*
X111401817Y-78748754D01*
X111367200Y-78574721D01*
X111367200Y-78397279D01*
X111401817Y-78223246D01*
X111469721Y-78059311D01*
X111568303Y-77911773D01*
X111693773Y-77786303D01*
X111841311Y-77687721D01*
X112005246Y-77619817D01*
X112179279Y-77585200D01*
X112356721Y-77585200D01*
X112530754Y-77619817D01*
G37*
G36*
X115070754Y-77619817D02*
G01*
X115234689Y-77687721D01*
X115382227Y-77786303D01*
X115507697Y-77911773D01*
X115606279Y-78059311D01*
X115674183Y-78223246D01*
X115708800Y-78397279D01*
X115708800Y-78574721D01*
X115674183Y-78748754D01*
X115606279Y-78912689D01*
X115507697Y-79060227D01*
X115382227Y-79185697D01*
X115234689Y-79284279D01*
X115070754Y-79352183D01*
X114896721Y-79386800D01*
X114719279Y-79386800D01*
X114545246Y-79352183D01*
X114381311Y-79284279D01*
X114233773Y-79185697D01*
X114108303Y-79060227D01*
X114009721Y-78912689D01*
X113941817Y-78748754D01*
X113907200Y-78574721D01*
X113907200Y-78397279D01*
X113941817Y-78223246D01*
X114009721Y-78059311D01*
X114108303Y-77911773D01*
X114233773Y-77786303D01*
X114381311Y-77687721D01*
X114545246Y-77619817D01*
X114719279Y-77585200D01*
X114896721Y-77585200D01*
X115070754Y-77619817D01*
G37*
G36*
X182126754Y-77619817D02*
G01*
X182290689Y-77687721D01*
X182438227Y-77786303D01*
X182563697Y-77911773D01*
X182662279Y-78059311D01*
X182730183Y-78223246D01*
X182764800Y-78397279D01*
X182764800Y-78574721D01*
X182730183Y-78748754D01*
X182662279Y-78912689D01*
X182563697Y-79060227D01*
X182438227Y-79185697D01*
X182290689Y-79284279D01*
X182126754Y-79352183D01*
X181952721Y-79386800D01*
X181775279Y-79386800D01*
X181601246Y-79352183D01*
X181437311Y-79284279D01*
X181289773Y-79185697D01*
X181164303Y-79060227D01*
X181065721Y-78912689D01*
X180997817Y-78748754D01*
X180963200Y-78574721D01*
X180963200Y-78397279D01*
X180997817Y-78223246D01*
X181065721Y-78059311D01*
X181164303Y-77911773D01*
X181289773Y-77786303D01*
X181437311Y-77687721D01*
X181601246Y-77619817D01*
X181775279Y-77585200D01*
X181952721Y-77585200D01*
X182126754Y-77619817D01*
G37*
G36*
X179586754Y-77619817D02*
G01*
X179750689Y-77687721D01*
X179898227Y-77786303D01*
X180023697Y-77911773D01*
X180122279Y-78059311D01*
X180190183Y-78223246D01*
X180224800Y-78397279D01*
X180224800Y-78574721D01*
X180190183Y-78748754D01*
X180122279Y-78912689D01*
X180023697Y-79060227D01*
X179898227Y-79185697D01*
X179750689Y-79284279D01*
X179586754Y-79352183D01*
X179412721Y-79386800D01*
X179235279Y-79386800D01*
X179061246Y-79352183D01*
X178897311Y-79284279D01*
X178749773Y-79185697D01*
X178624303Y-79060227D01*
X178525721Y-78912689D01*
X178457817Y-78748754D01*
X178423200Y-78574721D01*
X178423200Y-78397279D01*
X178457817Y-78223246D01*
X178525721Y-78059311D01*
X178624303Y-77911773D01*
X178749773Y-77786303D01*
X178897311Y-77687721D01*
X179061246Y-77619817D01*
X179235279Y-77585200D01*
X179412721Y-77585200D01*
X179586754Y-77619817D01*
G37*
G36*
X182126754Y-75079817D02*
G01*
X182290689Y-75147721D01*
X182438227Y-75246303D01*
X182563697Y-75371773D01*
X182662279Y-75519311D01*
X182730183Y-75683246D01*
X182764800Y-75857279D01*
X182764800Y-76034721D01*
X182730183Y-76208754D01*
X182662279Y-76372689D01*
X182563697Y-76520227D01*
X182438227Y-76645697D01*
X182290689Y-76744279D01*
X182126754Y-76812183D01*
X181952721Y-76846800D01*
X181775279Y-76846800D01*
X181601246Y-76812183D01*
X181437311Y-76744279D01*
X181289773Y-76645697D01*
X181164303Y-76520227D01*
X181065721Y-76372689D01*
X180997817Y-76208754D01*
X180963200Y-76034721D01*
X180963200Y-75857279D01*
X180997817Y-75683246D01*
X181065721Y-75519311D01*
X181164303Y-75371773D01*
X181289773Y-75246303D01*
X181437311Y-75147721D01*
X181601246Y-75079817D01*
X181775279Y-75045200D01*
X181952721Y-75045200D01*
X182126754Y-75079817D01*
G37*
G36*
X179586754Y-75079817D02*
G01*
X179750689Y-75147721D01*
X179898227Y-75246303D01*
X180023697Y-75371773D01*
X180122279Y-75519311D01*
X180190183Y-75683246D01*
X180224800Y-75857279D01*
X180224800Y-76034721D01*
X180190183Y-76208754D01*
X180122279Y-76372689D01*
X180023697Y-76520227D01*
X179898227Y-76645697D01*
X179750689Y-76744279D01*
X179586754Y-76812183D01*
X179412721Y-76846800D01*
X179235279Y-76846800D01*
X179061246Y-76812183D01*
X178897311Y-76744279D01*
X178749773Y-76645697D01*
X178624303Y-76520227D01*
X178525721Y-76372689D01*
X178457817Y-76208754D01*
X178423200Y-76034721D01*
X178423200Y-75857279D01*
X178457817Y-75683246D01*
X178525721Y-75519311D01*
X178624303Y-75371773D01*
X178749773Y-75246303D01*
X178897311Y-75147721D01*
X179061246Y-75079817D01*
X179235279Y-75045200D01*
X179412721Y-75045200D01*
X179586754Y-75079817D01*
G37*
G36*
X112530754Y-75079817D02*
G01*
X112694689Y-75147721D01*
X112842227Y-75246303D01*
X112967697Y-75371773D01*
X113066279Y-75519311D01*
X113134183Y-75683246D01*
X113168800Y-75857279D01*
X113168800Y-76034721D01*
X113134183Y-76208754D01*
X113066279Y-76372689D01*
X112967697Y-76520227D01*
X112842227Y-76645697D01*
X112694689Y-76744279D01*
X112530754Y-76812183D01*
X112356721Y-76846800D01*
X112179279Y-76846800D01*
X112005246Y-76812183D01*
X111841311Y-76744279D01*
X111693773Y-76645697D01*
X111568303Y-76520227D01*
X111469721Y-76372689D01*
X111401817Y-76208754D01*
X111367200Y-76034721D01*
X111367200Y-75857279D01*
X111401817Y-75683246D01*
X111469721Y-75519311D01*
X111568303Y-75371773D01*
X111693773Y-75246303D01*
X111841311Y-75147721D01*
X112005246Y-75079817D01*
X112179279Y-75045200D01*
X112356721Y-75045200D01*
X112530754Y-75079817D01*
G37*
G36*
X115070754Y-75079817D02*
G01*
X115234689Y-75147721D01*
X115382227Y-75246303D01*
X115507697Y-75371773D01*
X115606279Y-75519311D01*
X115674183Y-75683246D01*
X115708800Y-75857279D01*
X115708800Y-76034721D01*
X115674183Y-76208754D01*
X115606279Y-76372689D01*
X115507697Y-76520227D01*
X115382227Y-76645697D01*
X115234689Y-76744279D01*
X115070754Y-76812183D01*
X114896721Y-76846800D01*
X114719279Y-76846800D01*
X114545246Y-76812183D01*
X114381311Y-76744279D01*
X114233773Y-76645697D01*
X114108303Y-76520227D01*
X114009721Y-76372689D01*
X113941817Y-76208754D01*
X113907200Y-76034721D01*
X113907200Y-75857279D01*
X113941817Y-75683246D01*
X114009721Y-75519311D01*
X114108303Y-75371773D01*
X114233773Y-75246303D01*
X114381311Y-75147721D01*
X114545246Y-75079817D01*
X114719279Y-75045200D01*
X114896721Y-75045200D01*
X115070754Y-75079817D01*
G37*
G36*
X115070754Y-72539817D02*
G01*
X115234689Y-72607721D01*
X115382227Y-72706303D01*
X115507697Y-72831773D01*
X115606279Y-72979311D01*
X115674183Y-73143246D01*
X115708800Y-73317279D01*
X115708800Y-73494721D01*
X115674183Y-73668754D01*
X115606279Y-73832689D01*
X115507697Y-73980227D01*
X115382227Y-74105697D01*
X115234689Y-74204279D01*
X115070754Y-74272183D01*
X114896721Y-74306800D01*
X114719279Y-74306800D01*
X114545246Y-74272183D01*
X114381311Y-74204279D01*
X114233773Y-74105697D01*
X114108303Y-73980227D01*
X114009721Y-73832689D01*
X113941817Y-73668754D01*
X113907200Y-73494721D01*
X113907200Y-73317279D01*
X113941817Y-73143246D01*
X114009721Y-72979311D01*
X114108303Y-72831773D01*
X114233773Y-72706303D01*
X114381311Y-72607721D01*
X114545246Y-72539817D01*
X114719279Y-72505200D01*
X114896721Y-72505200D01*
X115070754Y-72539817D01*
G37*
G36*
X182126754Y-72539817D02*
G01*
X182290689Y-72607721D01*
X182438227Y-72706303D01*
X182563697Y-72831773D01*
X182662279Y-72979311D01*
X182730183Y-73143246D01*
X182764800Y-73317279D01*
X182764800Y-73494721D01*
X182730183Y-73668754D01*
X182662279Y-73832689D01*
X182563697Y-73980227D01*
X182438227Y-74105697D01*
X182290689Y-74204279D01*
X182126754Y-74272183D01*
X181952721Y-74306800D01*
X181775279Y-74306800D01*
X181601246Y-74272183D01*
X181437311Y-74204279D01*
X181289773Y-74105697D01*
X181164303Y-73980227D01*
X181065721Y-73832689D01*
X180997817Y-73668754D01*
X180963200Y-73494721D01*
X180963200Y-73317279D01*
X180997817Y-73143246D01*
X181065721Y-72979311D01*
X181164303Y-72831773D01*
X181289773Y-72706303D01*
X181437311Y-72607721D01*
X181601246Y-72539817D01*
X181775279Y-72505200D01*
X181952721Y-72505200D01*
X182126754Y-72539817D01*
G37*
G36*
X179586754Y-72539817D02*
G01*
X179750689Y-72607721D01*
X179898227Y-72706303D01*
X180023697Y-72831773D01*
X180122279Y-72979311D01*
X180190183Y-73143246D01*
X180224800Y-73317279D01*
X180224800Y-73494721D01*
X180190183Y-73668754D01*
X180122279Y-73832689D01*
X180023697Y-73980227D01*
X179898227Y-74105697D01*
X179750689Y-74204279D01*
X179586754Y-74272183D01*
X179412721Y-74306800D01*
X179235279Y-74306800D01*
X179061246Y-74272183D01*
X178897311Y-74204279D01*
X178749773Y-74105697D01*
X178624303Y-73980227D01*
X178525721Y-73832689D01*
X178457817Y-73668754D01*
X178423200Y-73494721D01*
X178423200Y-73317279D01*
X178457817Y-73143246D01*
X178525721Y-72979311D01*
X178624303Y-72831773D01*
X178749773Y-72706303D01*
X178897311Y-72607721D01*
X179061246Y-72539817D01*
X179235279Y-72505200D01*
X179412721Y-72505200D01*
X179586754Y-72539817D01*
G37*
G36*
X112530754Y-72539817D02*
G01*
X112694689Y-72607721D01*
X112842227Y-72706303D01*
X112967697Y-72831773D01*
X113066279Y-72979311D01*
X113134183Y-73143246D01*
X113168800Y-73317279D01*
X113168800Y-73494721D01*
X113134183Y-73668754D01*
X113066279Y-73832689D01*
X112967697Y-73980227D01*
X112842227Y-74105697D01*
X112694689Y-74204279D01*
X112530754Y-74272183D01*
X112356721Y-74306800D01*
X112179279Y-74306800D01*
X112005246Y-74272183D01*
X111841311Y-74204279D01*
X111693773Y-74105697D01*
X111568303Y-73980227D01*
X111469721Y-73832689D01*
X111401817Y-73668754D01*
X111367200Y-73494721D01*
X111367200Y-73317279D01*
X111401817Y-73143246D01*
X111469721Y-72979311D01*
X111568303Y-72831773D01*
X111693773Y-72706303D01*
X111841311Y-72607721D01*
X112005246Y-72539817D01*
X112179279Y-72505200D01*
X112356721Y-72505200D01*
X112530754Y-72539817D01*
G37*
G36*
X160285800Y-73544800D02*
G01*
X158484200Y-73544800D01*
X158484200Y-71743200D01*
X160285800Y-71743200D01*
X160285800Y-73544800D01*
G37*
G36*
X162187754Y-71777817D02*
G01*
X162351689Y-71845721D01*
X162499227Y-71944303D01*
X162624697Y-72069773D01*
X162723279Y-72217311D01*
X162791183Y-72381246D01*
X162825800Y-72555279D01*
X162825800Y-72732721D01*
X162791183Y-72906754D01*
X162723279Y-73070689D01*
X162624697Y-73218227D01*
X162499227Y-73343697D01*
X162351689Y-73442279D01*
X162187754Y-73510183D01*
X162013721Y-73544800D01*
X161836279Y-73544800D01*
X161662246Y-73510183D01*
X161498311Y-73442279D01*
X161350773Y-73343697D01*
X161225303Y-73218227D01*
X161126721Y-73070689D01*
X161058817Y-72906754D01*
X161024200Y-72732721D01*
X161024200Y-72555279D01*
X161058817Y-72381246D01*
X161126721Y-72217311D01*
X161225303Y-72069773D01*
X161350773Y-71944303D01*
X161498311Y-71845721D01*
X161662246Y-71777817D01*
X161836279Y-71743200D01*
X162013721Y-71743200D01*
X162187754Y-71777817D01*
G37*
G36*
X179586754Y-69999817D02*
G01*
X179750689Y-70067721D01*
X179898227Y-70166303D01*
X180023697Y-70291773D01*
X180122279Y-70439311D01*
X180190183Y-70603246D01*
X180224800Y-70777279D01*
X180224800Y-70954721D01*
X180190183Y-71128754D01*
X180122279Y-71292689D01*
X180023697Y-71440227D01*
X179898227Y-71565697D01*
X179750689Y-71664279D01*
X179586754Y-71732183D01*
X179412721Y-71766800D01*
X179235279Y-71766800D01*
X179061246Y-71732183D01*
X178897311Y-71664279D01*
X178749773Y-71565697D01*
X178624303Y-71440227D01*
X178525721Y-71292689D01*
X178457817Y-71128754D01*
X178423200Y-70954721D01*
X178423200Y-70777279D01*
X178457817Y-70603246D01*
X178525721Y-70439311D01*
X178624303Y-70291773D01*
X178749773Y-70166303D01*
X178897311Y-70067721D01*
X179061246Y-69999817D01*
X179235279Y-69965200D01*
X179412721Y-69965200D01*
X179586754Y-69999817D01*
G37*
G36*
X115070754Y-69999817D02*
G01*
X115234689Y-70067721D01*
X115382227Y-70166303D01*
X115507697Y-70291773D01*
X115606279Y-70439311D01*
X115674183Y-70603246D01*
X115708800Y-70777279D01*
X115708800Y-70954721D01*
X115674183Y-71128754D01*
X115606279Y-71292689D01*
X115507697Y-71440227D01*
X115382227Y-71565697D01*
X115234689Y-71664279D01*
X115070754Y-71732183D01*
X114896721Y-71766800D01*
X114719279Y-71766800D01*
X114545246Y-71732183D01*
X114381311Y-71664279D01*
X114233773Y-71565697D01*
X114108303Y-71440227D01*
X114009721Y-71292689D01*
X113941817Y-71128754D01*
X113907200Y-70954721D01*
X113907200Y-70777279D01*
X113941817Y-70603246D01*
X114009721Y-70439311D01*
X114108303Y-70291773D01*
X114233773Y-70166303D01*
X114381311Y-70067721D01*
X114545246Y-69999817D01*
X114719279Y-69965200D01*
X114896721Y-69965200D01*
X115070754Y-69999817D01*
G37*
G36*
X112530754Y-69999817D02*
G01*
X112694689Y-70067721D01*
X112842227Y-70166303D01*
X112967697Y-70291773D01*
X113066279Y-70439311D01*
X113134183Y-70603246D01*
X113168800Y-70777279D01*
X113168800Y-70954721D01*
X113134183Y-71128754D01*
X113066279Y-71292689D01*
X112967697Y-71440227D01*
X112842227Y-71565697D01*
X112694689Y-71664279D01*
X112530754Y-71732183D01*
X112356721Y-71766800D01*
X112179279Y-71766800D01*
X112005246Y-71732183D01*
X111841311Y-71664279D01*
X111693773Y-71565697D01*
X111568303Y-71440227D01*
X111469721Y-71292689D01*
X111401817Y-71128754D01*
X111367200Y-70954721D01*
X111367200Y-70777279D01*
X111401817Y-70603246D01*
X111469721Y-70439311D01*
X111568303Y-70291773D01*
X111693773Y-70166303D01*
X111841311Y-70067721D01*
X112005246Y-69999817D01*
X112179279Y-69965200D01*
X112356721Y-69965200D01*
X112530754Y-69999817D01*
G37*
G36*
X182126754Y-69999817D02*
G01*
X182290689Y-70067721D01*
X182438227Y-70166303D01*
X182563697Y-70291773D01*
X182662279Y-70439311D01*
X182730183Y-70603246D01*
X182764800Y-70777279D01*
X182764800Y-70954721D01*
X182730183Y-71128754D01*
X182662279Y-71292689D01*
X182563697Y-71440227D01*
X182438227Y-71565697D01*
X182290689Y-71664279D01*
X182126754Y-71732183D01*
X181952721Y-71766800D01*
X181775279Y-71766800D01*
X181601246Y-71732183D01*
X181437311Y-71664279D01*
X181289773Y-71565697D01*
X181164303Y-71440227D01*
X181065721Y-71292689D01*
X180997817Y-71128754D01*
X180963200Y-70954721D01*
X180963200Y-70777279D01*
X180997817Y-70603246D01*
X181065721Y-70439311D01*
X181164303Y-70291773D01*
X181289773Y-70166303D01*
X181437311Y-70067721D01*
X181601246Y-69999817D01*
X181775279Y-69965200D01*
X181952721Y-69965200D01*
X182126754Y-69999817D01*
G37*
G36*
X182126754Y-67459817D02*
G01*
X182290689Y-67527721D01*
X182438227Y-67626303D01*
X182563697Y-67751773D01*
X182662279Y-67899311D01*
X182730183Y-68063246D01*
X182764800Y-68237279D01*
X182764800Y-68414721D01*
X182730183Y-68588754D01*
X182662279Y-68752689D01*
X182563697Y-68900227D01*
X182438227Y-69025697D01*
X182290689Y-69124279D01*
X182126754Y-69192183D01*
X181952721Y-69226800D01*
X181775279Y-69226800D01*
X181601246Y-69192183D01*
X181437311Y-69124279D01*
X181289773Y-69025697D01*
X181164303Y-68900227D01*
X181065721Y-68752689D01*
X180997817Y-68588754D01*
X180963200Y-68414721D01*
X180963200Y-68237279D01*
X180997817Y-68063246D01*
X181065721Y-67899311D01*
X181164303Y-67751773D01*
X181289773Y-67626303D01*
X181437311Y-67527721D01*
X181601246Y-67459817D01*
X181775279Y-67425200D01*
X181952721Y-67425200D01*
X182126754Y-67459817D01*
G37*
G36*
X179586754Y-67459817D02*
G01*
X179750689Y-67527721D01*
X179898227Y-67626303D01*
X180023697Y-67751773D01*
X180122279Y-67899311D01*
X180190183Y-68063246D01*
X180224800Y-68237279D01*
X180224800Y-68414721D01*
X180190183Y-68588754D01*
X180122279Y-68752689D01*
X180023697Y-68900227D01*
X179898227Y-69025697D01*
X179750689Y-69124279D01*
X179586754Y-69192183D01*
X179412721Y-69226800D01*
X179235279Y-69226800D01*
X179061246Y-69192183D01*
X178897311Y-69124279D01*
X178749773Y-69025697D01*
X178624303Y-68900227D01*
X178525721Y-68752689D01*
X178457817Y-68588754D01*
X178423200Y-68414721D01*
X178423200Y-68237279D01*
X178457817Y-68063246D01*
X178525721Y-67899311D01*
X178624303Y-67751773D01*
X178749773Y-67626303D01*
X178897311Y-67527721D01*
X179061246Y-67459817D01*
X179235279Y-67425200D01*
X179412721Y-67425200D01*
X179586754Y-67459817D01*
G37*
G36*
X112530754Y-67459817D02*
G01*
X112694689Y-67527721D01*
X112842227Y-67626303D01*
X112967697Y-67751773D01*
X113066279Y-67899311D01*
X113134183Y-68063246D01*
X113168800Y-68237279D01*
X113168800Y-68414721D01*
X113134183Y-68588754D01*
X113066279Y-68752689D01*
X112967697Y-68900227D01*
X112842227Y-69025697D01*
X112694689Y-69124279D01*
X112530754Y-69192183D01*
X112356721Y-69226800D01*
X112179279Y-69226800D01*
X112005246Y-69192183D01*
X111841311Y-69124279D01*
X111693773Y-69025697D01*
X111568303Y-68900227D01*
X111469721Y-68752689D01*
X111401817Y-68588754D01*
X111367200Y-68414721D01*
X111367200Y-68237279D01*
X111401817Y-68063246D01*
X111469721Y-67899311D01*
X111568303Y-67751773D01*
X111693773Y-67626303D01*
X111841311Y-67527721D01*
X112005246Y-67459817D01*
X112179279Y-67425200D01*
X112356721Y-67425200D01*
X112530754Y-67459817D01*
G37*
G36*
X115070754Y-67459817D02*
G01*
X115234689Y-67527721D01*
X115382227Y-67626303D01*
X115507697Y-67751773D01*
X115606279Y-67899311D01*
X115674183Y-68063246D01*
X115708800Y-68237279D01*
X115708800Y-68414721D01*
X115674183Y-68588754D01*
X115606279Y-68752689D01*
X115507697Y-68900227D01*
X115382227Y-69025697D01*
X115234689Y-69124279D01*
X115070754Y-69192183D01*
X114896721Y-69226800D01*
X114719279Y-69226800D01*
X114545246Y-69192183D01*
X114381311Y-69124279D01*
X114233773Y-69025697D01*
X114108303Y-68900227D01*
X114009721Y-68752689D01*
X113941817Y-68588754D01*
X113907200Y-68414721D01*
X113907200Y-68237279D01*
X113941817Y-68063246D01*
X114009721Y-67899311D01*
X114108303Y-67751773D01*
X114233773Y-67626303D01*
X114381311Y-67527721D01*
X114545246Y-67459817D01*
X114719279Y-67425200D01*
X114896721Y-67425200D01*
X115070754Y-67459817D01*
G37*
G36*
X122762800Y-67890800D02*
G01*
X120061200Y-67890800D01*
X120061200Y-64189200D01*
X122762800Y-64189200D01*
X122762800Y-67890800D01*
G37*
G36*
X152062800Y-67890800D02*
G01*
X149361200Y-67890800D01*
X149361200Y-64189200D01*
X152062800Y-64189200D01*
X152062800Y-67890800D01*
G37*
G36*
X182126754Y-64919817D02*
G01*
X182290689Y-64987721D01*
X182438227Y-65086303D01*
X182563697Y-65211773D01*
X182662279Y-65359311D01*
X182730183Y-65523246D01*
X182764800Y-65697279D01*
X182764800Y-65874721D01*
X182730183Y-66048754D01*
X182662279Y-66212689D01*
X182563697Y-66360227D01*
X182438227Y-66485697D01*
X182290689Y-66584279D01*
X182126754Y-66652183D01*
X181952721Y-66686800D01*
X181775279Y-66686800D01*
X181601246Y-66652183D01*
X181437311Y-66584279D01*
X181289773Y-66485697D01*
X181164303Y-66360227D01*
X181065721Y-66212689D01*
X180997817Y-66048754D01*
X180963200Y-65874721D01*
X180963200Y-65697279D01*
X180997817Y-65523246D01*
X181065721Y-65359311D01*
X181164303Y-65211773D01*
X181289773Y-65086303D01*
X181437311Y-64987721D01*
X181601246Y-64919817D01*
X181775279Y-64885200D01*
X181952721Y-64885200D01*
X182126754Y-64919817D01*
G37*
G36*
X179586754Y-64919817D02*
G01*
X179750689Y-64987721D01*
X179898227Y-65086303D01*
X180023697Y-65211773D01*
X180122279Y-65359311D01*
X180190183Y-65523246D01*
X180224800Y-65697279D01*
X180224800Y-65874721D01*
X180190183Y-66048754D01*
X180122279Y-66212689D01*
X180023697Y-66360227D01*
X179898227Y-66485697D01*
X179750689Y-66584279D01*
X179586754Y-66652183D01*
X179412721Y-66686800D01*
X179235279Y-66686800D01*
X179061246Y-66652183D01*
X178897311Y-66584279D01*
X178749773Y-66485697D01*
X178624303Y-66360227D01*
X178525721Y-66212689D01*
X178457817Y-66048754D01*
X178423200Y-65874721D01*
X178423200Y-65697279D01*
X178457817Y-65523246D01*
X178525721Y-65359311D01*
X178624303Y-65211773D01*
X178749773Y-65086303D01*
X178897311Y-64987721D01*
X179061246Y-64919817D01*
X179235279Y-64885200D01*
X179412721Y-64885200D01*
X179586754Y-64919817D01*
G37*
G36*
X115070754Y-64919817D02*
G01*
X115234689Y-64987721D01*
X115382227Y-65086303D01*
X115507697Y-65211773D01*
X115606279Y-65359311D01*
X115674183Y-65523246D01*
X115708800Y-65697279D01*
X115708800Y-65874721D01*
X115674183Y-66048754D01*
X115606279Y-66212689D01*
X115507697Y-66360227D01*
X115382227Y-66485697D01*
X115234689Y-66584279D01*
X115070754Y-66652183D01*
X114896721Y-66686800D01*
X114719279Y-66686800D01*
X114545246Y-66652183D01*
X114381311Y-66584279D01*
X114233773Y-66485697D01*
X114108303Y-66360227D01*
X114009721Y-66212689D01*
X113941817Y-66048754D01*
X113907200Y-65874721D01*
X113907200Y-65697279D01*
X113941817Y-65523246D01*
X114009721Y-65359311D01*
X114108303Y-65211773D01*
X114233773Y-65086303D01*
X114381311Y-64987721D01*
X114545246Y-64919817D01*
X114719279Y-64885200D01*
X114896721Y-64885200D01*
X115070754Y-64919817D01*
G37*
G36*
X112530754Y-64919817D02*
G01*
X112694689Y-64987721D01*
X112842227Y-65086303D01*
X112967697Y-65211773D01*
X113066279Y-65359311D01*
X113134183Y-65523246D01*
X113168800Y-65697279D01*
X113168800Y-65874721D01*
X113134183Y-66048754D01*
X113066279Y-66212689D01*
X112967697Y-66360227D01*
X112842227Y-66485697D01*
X112694689Y-66584279D01*
X112530754Y-66652183D01*
X112356721Y-66686800D01*
X112179279Y-66686800D01*
X112005246Y-66652183D01*
X111841311Y-66584279D01*
X111693773Y-66485697D01*
X111568303Y-66360227D01*
X111469721Y-66212689D01*
X111401817Y-66048754D01*
X111367200Y-65874721D01*
X111367200Y-65697279D01*
X111401817Y-65523246D01*
X111469721Y-65359311D01*
X111568303Y-65211773D01*
X111693773Y-65086303D01*
X111841311Y-64987721D01*
X112005246Y-64919817D01*
X112179279Y-64885200D01*
X112356721Y-64885200D01*
X112530754Y-64919817D01*
G37*
G36*
X112530754Y-62379817D02*
G01*
X112694689Y-62447721D01*
X112842227Y-62546303D01*
X112967697Y-62671773D01*
X113066279Y-62819311D01*
X113134183Y-62983246D01*
X113168800Y-63157279D01*
X113168800Y-63334721D01*
X113134183Y-63508754D01*
X113066279Y-63672689D01*
X112967697Y-63820227D01*
X112842227Y-63945697D01*
X112694689Y-64044279D01*
X112530754Y-64112183D01*
X112356721Y-64146800D01*
X112179279Y-64146800D01*
X112005246Y-64112183D01*
X111841311Y-64044279D01*
X111693773Y-63945697D01*
X111568303Y-63820227D01*
X111469721Y-63672689D01*
X111401817Y-63508754D01*
X111367200Y-63334721D01*
X111367200Y-63157279D01*
X111401817Y-62983246D01*
X111469721Y-62819311D01*
X111568303Y-62671773D01*
X111693773Y-62546303D01*
X111841311Y-62447721D01*
X112005246Y-62379817D01*
X112179279Y-62345200D01*
X112356721Y-62345200D01*
X112530754Y-62379817D01*
G37*
G36*
X115070754Y-62379817D02*
G01*
X115234689Y-62447721D01*
X115382227Y-62546303D01*
X115507697Y-62671773D01*
X115606279Y-62819311D01*
X115674183Y-62983246D01*
X115708800Y-63157279D01*
X115708800Y-63334721D01*
X115674183Y-63508754D01*
X115606279Y-63672689D01*
X115507697Y-63820227D01*
X115382227Y-63945697D01*
X115234689Y-64044279D01*
X115070754Y-64112183D01*
X114896721Y-64146800D01*
X114719279Y-64146800D01*
X114545246Y-64112183D01*
X114381311Y-64044279D01*
X114233773Y-63945697D01*
X114108303Y-63820227D01*
X114009721Y-63672689D01*
X113941817Y-63508754D01*
X113907200Y-63334721D01*
X113907200Y-63157279D01*
X113941817Y-62983246D01*
X114009721Y-62819311D01*
X114108303Y-62671773D01*
X114233773Y-62546303D01*
X114381311Y-62447721D01*
X114545246Y-62379817D01*
X114719279Y-62345200D01*
X114896721Y-62345200D01*
X115070754Y-62379817D01*
G37*
G36*
X182126754Y-62379817D02*
G01*
X182290689Y-62447721D01*
X182438227Y-62546303D01*
X182563697Y-62671773D01*
X182662279Y-62819311D01*
X182730183Y-62983246D01*
X182764800Y-63157279D01*
X182764800Y-63334721D01*
X182730183Y-63508754D01*
X182662279Y-63672689D01*
X182563697Y-63820227D01*
X182438227Y-63945697D01*
X182290689Y-64044279D01*
X182126754Y-64112183D01*
X181952721Y-64146800D01*
X181775279Y-64146800D01*
X181601246Y-64112183D01*
X181437311Y-64044279D01*
X181289773Y-63945697D01*
X181164303Y-63820227D01*
X181065721Y-63672689D01*
X180997817Y-63508754D01*
X180963200Y-63334721D01*
X180963200Y-63157279D01*
X180997817Y-62983246D01*
X181065721Y-62819311D01*
X181164303Y-62671773D01*
X181289773Y-62546303D01*
X181437311Y-62447721D01*
X181601246Y-62379817D01*
X181775279Y-62345200D01*
X181952721Y-62345200D01*
X182126754Y-62379817D01*
G37*
G36*
X179586754Y-62379817D02*
G01*
X179750689Y-62447721D01*
X179898227Y-62546303D01*
X180023697Y-62671773D01*
X180122279Y-62819311D01*
X180190183Y-62983246D01*
X180224800Y-63157279D01*
X180224800Y-63334721D01*
X180190183Y-63508754D01*
X180122279Y-63672689D01*
X180023697Y-63820227D01*
X179898227Y-63945697D01*
X179750689Y-64044279D01*
X179586754Y-64112183D01*
X179412721Y-64146800D01*
X179235279Y-64146800D01*
X179061246Y-64112183D01*
X178897311Y-64044279D01*
X178749773Y-63945697D01*
X178624303Y-63820227D01*
X178525721Y-63672689D01*
X178457817Y-63508754D01*
X178423200Y-63334721D01*
X178423200Y-63157279D01*
X178457817Y-62983246D01*
X178525721Y-62819311D01*
X178624303Y-62671773D01*
X178749773Y-62546303D01*
X178897311Y-62447721D01*
X179061246Y-62379817D01*
X179235279Y-62345200D01*
X179412721Y-62345200D01*
X179586754Y-62379817D01*
G37*
G36*
X174213188Y-55327432D02*
G01*
X174684226Y-55421127D01*
X175275832Y-55666178D01*
X175808265Y-56021938D01*
X176261062Y-56474735D01*
X176616822Y-57007168D01*
X176861873Y-57598774D01*
X176986800Y-58226825D01*
X176986800Y-58867175D01*
X176861873Y-59495226D01*
X176616822Y-60086832D01*
X176261062Y-60619265D01*
X175808265Y-61072062D01*
X175275832Y-61427822D01*
X174684226Y-61672873D01*
X174213188Y-61766568D01*
X174056176Y-61797800D01*
X173415824Y-61797800D01*
X173258812Y-61766568D01*
X172787774Y-61672873D01*
X172196168Y-61427822D01*
X171663735Y-61072062D01*
X171210938Y-60619265D01*
X170855178Y-60086832D01*
X170610127Y-59495226D01*
X170485200Y-58867175D01*
X170485200Y-58226825D01*
X170610127Y-57598774D01*
X170855178Y-57007168D01*
X171210938Y-56474735D01*
X171663735Y-56021938D01*
X172196168Y-55666178D01*
X172787774Y-55421127D01*
X173258812Y-55327432D01*
X173415824Y-55296200D01*
X174056176Y-55296200D01*
X174213188Y-55327432D01*
G37*
G36*
X182126754Y-59839817D02*
G01*
X182290689Y-59907721D01*
X182438227Y-60006303D01*
X182563697Y-60131773D01*
X182662279Y-60279311D01*
X182730183Y-60443246D01*
X182764800Y-60617279D01*
X182764800Y-60794721D01*
X182730183Y-60968754D01*
X182662279Y-61132689D01*
X182563697Y-61280227D01*
X182438227Y-61405697D01*
X182290689Y-61504279D01*
X182126754Y-61572183D01*
X181952721Y-61606800D01*
X181775279Y-61606800D01*
X181601246Y-61572183D01*
X181437311Y-61504279D01*
X181289773Y-61405697D01*
X181164303Y-61280227D01*
X181065721Y-61132689D01*
X180997817Y-60968754D01*
X180963200Y-60794721D01*
X180963200Y-60617279D01*
X180997817Y-60443246D01*
X181065721Y-60279311D01*
X181164303Y-60131773D01*
X181289773Y-60006303D01*
X181437311Y-59907721D01*
X181601246Y-59839817D01*
X181775279Y-59805200D01*
X181952721Y-59805200D01*
X182126754Y-59839817D01*
G37*
G36*
X179586754Y-59839817D02*
G01*
X179750689Y-59907721D01*
X179898227Y-60006303D01*
X180023697Y-60131773D01*
X180122279Y-60279311D01*
X180190183Y-60443246D01*
X180224800Y-60617279D01*
X180224800Y-60794721D01*
X180190183Y-60968754D01*
X180122279Y-61132689D01*
X180023697Y-61280227D01*
X179898227Y-61405697D01*
X179750689Y-61504279D01*
X179586754Y-61572183D01*
X179412721Y-61606800D01*
X179235279Y-61606800D01*
X179061246Y-61572183D01*
X178897311Y-61504279D01*
X178749773Y-61405697D01*
X178624303Y-61280227D01*
X178525721Y-61132689D01*
X178457817Y-60968754D01*
X178423200Y-60794721D01*
X178423200Y-60617279D01*
X178457817Y-60443246D01*
X178525721Y-60279311D01*
X178624303Y-60131773D01*
X178749773Y-60006303D01*
X178897311Y-59907721D01*
X179061246Y-59839817D01*
X179235279Y-59805200D01*
X179412721Y-59805200D01*
X179586754Y-59839817D01*
G37*
G36*
X115070754Y-59839817D02*
G01*
X115234689Y-59907721D01*
X115382227Y-60006303D01*
X115507697Y-60131773D01*
X115606279Y-60279311D01*
X115674183Y-60443246D01*
X115708800Y-60617279D01*
X115708800Y-60794721D01*
X115674183Y-60968754D01*
X115606279Y-61132689D01*
X115507697Y-61280227D01*
X115382227Y-61405697D01*
X115234689Y-61504279D01*
X115070754Y-61572183D01*
X114896721Y-61606800D01*
X114719279Y-61606800D01*
X114545246Y-61572183D01*
X114381311Y-61504279D01*
X114233773Y-61405697D01*
X114108303Y-61280227D01*
X114009721Y-61132689D01*
X113941817Y-60968754D01*
X113907200Y-60794721D01*
X113907200Y-60617279D01*
X113941817Y-60443246D01*
X114009721Y-60279311D01*
X114108303Y-60131773D01*
X114233773Y-60006303D01*
X114381311Y-59907721D01*
X114545246Y-59839817D01*
X114719279Y-59805200D01*
X114896721Y-59805200D01*
X115070754Y-59839817D01*
G37*
G36*
X112530754Y-59839817D02*
G01*
X112694689Y-59907721D01*
X112842227Y-60006303D01*
X112967697Y-60131773D01*
X113066279Y-60279311D01*
X113134183Y-60443246D01*
X113168800Y-60617279D01*
X113168800Y-60794721D01*
X113134183Y-60968754D01*
X113066279Y-61132689D01*
X112967697Y-61280227D01*
X112842227Y-61405697D01*
X112694689Y-61504279D01*
X112530754Y-61572183D01*
X112356721Y-61606800D01*
X112179279Y-61606800D01*
X112005246Y-61572183D01*
X111841311Y-61504279D01*
X111693773Y-61405697D01*
X111568303Y-61280227D01*
X111469721Y-61132689D01*
X111401817Y-60968754D01*
X111367200Y-60794721D01*
X111367200Y-60617279D01*
X111401817Y-60443246D01*
X111469721Y-60279311D01*
X111568303Y-60131773D01*
X111693773Y-60006303D01*
X111841311Y-59907721D01*
X112005246Y-59839817D01*
X112179279Y-59805200D01*
X112356721Y-59805200D01*
X112530754Y-59839817D01*
G37*
M02*
